<svg xmlns="http://www.w3.org/2000/svg" viewBox="0 0 960 500" width="100%" height="100%" style="background:#ffffff;border:1px solid #e4e4e7;border-radius:14px;">
  <!-- Header / Scoreboard -->
  <g transform="translate(65, 28)">
    <text x="0" y="4" font-size="16" font-weight="900" fill="#09090b" font-family="-apple-system, BlinkMacSystemFont, sans-serif">🐋 vs 🦞</text>
    <text x="75" y="4" font-size="12" fill="#71717a" font-family="-apple-system, BlinkMacSystemFont, sans-serif">📈 The battle is on · Bring the 🍿</text>
    
    <g transform="translate(320, 0)">
      <circle cx="6" cy="0" r="4.5" fill="#0284c7"/>
      <text x="16" y="4" font-size="12" font-weight="700" fill="#0284c7" font-family="-apple-system, BlinkMacSystemFont, sans-serif">🐋 deepseek-ai/deepseek-harness</text>
    </g>

    <g transform="translate(600, 0)">
      <circle cx="6" cy="0" r="4.5" fill="#e11d48"/>
      <text x="16" y="4" font-size="12" font-weight="700" fill="#e11d48" font-family="-apple-system, BlinkMacSystemFont, sans-serif">🦞 openclaw/openclaw</text>
    </g>
  </g>

  <!-- Grid Lines -->
  <line x1="65" y1="450.0" x2="915" y2="450.0" stroke="#f4f4f5" stroke-width="1"/><text x="55" y="454.0" font-size="11.5" fill="#71717a" text-anchor="end" font-family="-apple-system, BlinkMacSystemFont, sans-serif">0</text><line x1="65" y1="371.0" x2="915" y2="371.0" stroke="#f4f4f5" stroke-width="1"/><text x="55" y="375.0" font-size="11.5" fill="#71717a" text-anchor="end" font-family="-apple-system, BlinkMacSystemFont, sans-serif">90k</text><line x1="65" y1="292.0" x2="915" y2="292.0" stroke="#f4f4f5" stroke-width="1"/><text x="55" y="296.0" font-size="11.5" fill="#71717a" text-anchor="end" font-family="-apple-system, BlinkMacSystemFont, sans-serif">180k</text><line x1="65" y1="213.0" x2="915" y2="213.0" stroke="#f4f4f5" stroke-width="1"/><text x="55" y="217.0" font-size="11.5" fill="#71717a" text-anchor="end" font-family="-apple-system, BlinkMacSystemFont, sans-serif">270k</text><line x1="65" y1="134.0" x2="915" y2="134.0" stroke="#f4f4f5" stroke-width="1"/><text x="55" y="138.0" font-size="11.5" fill="#71717a" text-anchor="end" font-family="-apple-system, BlinkMacSystemFont, sans-serif">360k</text><line x1="65" y1="55.0" x2="915" y2="55.0" stroke="#f4f4f5" stroke-width="1"/><text x="55" y="59.0" font-size="11.5" fill="#71717a" text-anchor="end" font-family="-apple-system, BlinkMacSystemFont, sans-serif">450k</text>
  <line x1="83.1" y1="55" x2="83.1" y2="450" stroke="#f4f4f5" stroke-width="1"/><text x="83.1" y="466" font-size="11" fill="#71717a" text-anchor="middle" font-family="-apple-system, BlinkMacSystemFont, sans-serif">W1</text><line x1="104.3" y1="55" x2="104.3" y2="450" stroke="#f4f4f5" stroke-width="1"/><text x="104.3" y="466" font-size="11" fill="#71717a" text-anchor="middle" font-family="-apple-system, BlinkMacSystemFont, sans-serif">W2</text><line x1="125.5" y1="55" x2="125.5" y2="450" stroke="#f4f4f5" stroke-width="1"/><line x1="146.7" y1="55" x2="146.7" y2="450" stroke="#f4f4f5" stroke-width="1"/><text x="146.7" y="466" font-size="11" fill="#71717a" text-anchor="middle" font-family="-apple-system, BlinkMacSystemFont, sans-serif">W4</text><line x1="167.8" y1="55" x2="167.8" y2="450" stroke="#f4f4f5" stroke-width="1"/><line x1="189.0" y1="55" x2="189.0" y2="450" stroke="#f4f4f5" stroke-width="1"/><text x="189.0" y="466" font-size="11" fill="#71717a" text-anchor="middle" font-family="-apple-system, BlinkMacSystemFont, sans-serif">W6</text><line x1="210.2" y1="55" x2="210.2" y2="450" stroke="#f4f4f5" stroke-width="1"/><line x1="231.4" y1="55" x2="231.4" y2="450" stroke="#f4f4f5" stroke-width="1"/><text x="231.4" y="466" font-size="11" fill="#71717a" text-anchor="middle" font-family="-apple-system, BlinkMacSystemFont, sans-serif">W8</text><line x1="252.5" y1="55" x2="252.5" y2="450" stroke="#f4f4f5" stroke-width="1"/><line x1="273.7" y1="55" x2="273.7" y2="450" stroke="#f4f4f5" stroke-width="1"/><text x="273.7" y="466" font-size="11" fill="#71717a" text-anchor="middle" font-family="-apple-system, BlinkMacSystemFont, sans-serif">W10</text><line x1="294.9" y1="55" x2="294.9" y2="450" stroke="#f4f4f5" stroke-width="1"/><line x1="316.1" y1="55" x2="316.1" y2="450" stroke="#f4f4f5" stroke-width="1"/><text x="316.1" y="466" font-size="11" fill="#71717a" text-anchor="middle" font-family="-apple-system, BlinkMacSystemFont, sans-serif">W12</text><line x1="337.2" y1="55" x2="337.2" y2="450" stroke="#f4f4f5" stroke-width="1"/><line x1="358.4" y1="55" x2="358.4" y2="450" stroke="#f4f4f5" stroke-width="1"/><text x="358.4" y="466" font-size="11" fill="#71717a" text-anchor="middle" font-family="-apple-system, BlinkMacSystemFont, sans-serif">W14</text><line x1="379.6" y1="55" x2="379.6" y2="450" stroke="#f4f4f5" stroke-width="1"/><line x1="400.8" y1="55" x2="400.8" y2="450" stroke="#f4f4f5" stroke-width="1"/><text x="400.8" y="466" font-size="11" fill="#71717a" text-anchor="middle" font-family="-apple-system, BlinkMacSystemFont, sans-serif">W16</text><line x1="421.9" y1="55" x2="421.9" y2="450" stroke="#f4f4f5" stroke-width="1"/><line x1="443.1" y1="55" x2="443.1" y2="450" stroke="#f4f4f5" stroke-width="1"/><text x="443.1" y="466" font-size="11" fill="#71717a" text-anchor="middle" font-family="-apple-system, BlinkMacSystemFont, sans-serif">W18</text><line x1="464.3" y1="55" x2="464.3" y2="450" stroke="#f4f4f5" stroke-width="1"/><line x1="485.5" y1="55" x2="485.5" y2="450" stroke="#f4f4f5" stroke-width="1"/><text x="485.5" y="466" font-size="11" fill="#71717a" text-anchor="middle" font-family="-apple-system, BlinkMacSystemFont, sans-serif">W20</text><line x1="506.6" y1="55" x2="506.6" y2="450" stroke="#f4f4f5" stroke-width="1"/><line x1="527.8" y1="55" x2="527.8" y2="450" stroke="#f4f4f5" stroke-width="1"/><line x1="549.0" y1="55" x2="549.0" y2="450" stroke="#f4f4f5" stroke-width="1"/><line x1="570.2" y1="55" x2="570.2" y2="450" stroke="#f4f4f5" stroke-width="1"/><text x="570.2" y="466" font-size="11" fill="#71717a" text-anchor="middle" font-family="-apple-system, BlinkMacSystemFont, sans-serif">W24</text><line x1="591.3" y1="55" x2="591.3" y2="450" stroke="#f4f4f5" stroke-width="1"/><line x1="612.5" y1="55" x2="612.5" y2="450" stroke="#f4f4f5" stroke-width="1"/><line x1="633.7" y1="55" x2="633.7" y2="450" stroke="#f4f4f5" stroke-width="1"/><line x1="654.9" y1="55" x2="654.9" y2="450" stroke="#f4f4f5" stroke-width="1"/><text x="654.9" y="466" font-size="11" fill="#71717a" text-anchor="middle" font-family="-apple-system, BlinkMacSystemFont, sans-serif">W28</text><line x1="676.0" y1="55" x2="676.0" y2="450" stroke="#f4f4f5" stroke-width="1"/><line x1="697.2" y1="55" x2="697.2" y2="450" stroke="#f4f4f5" stroke-width="1"/><line x1="718.4" y1="55" x2="718.4" y2="450" stroke="#f4f4f5" stroke-width="1"/><line x1="739.6" y1="55" x2="739.6" y2="450" stroke="#f4f4f5" stroke-width="1"/><text x="739.6" y="466" font-size="11" fill="#71717a" text-anchor="middle" font-family="-apple-system, BlinkMacSystemFont, sans-serif">W32</text><line x1="760.7" y1="55" x2="760.7" y2="450" stroke="#f4f4f5" stroke-width="1"/><line x1="781.9" y1="55" x2="781.9" y2="450" stroke="#f4f4f5" stroke-width="1"/><line x1="803.1" y1="55" x2="803.1" y2="450" stroke="#f4f4f5" stroke-width="1"/><line x1="824.3" y1="55" x2="824.3" y2="450" stroke="#f4f4f5" stroke-width="1"/><text x="824.3" y="466" font-size="11" fill="#71717a" text-anchor="middle" font-family="-apple-system, BlinkMacSystemFont, sans-serif">W36</text><line x1="845.4" y1="55" x2="845.4" y2="450" stroke="#f4f4f5" stroke-width="1"/><line x1="866.6" y1="55" x2="866.6" y2="450" stroke="#f4f4f5" stroke-width="1"/><line x1="887.8" y1="55" x2="887.8" y2="450" stroke="#f4f4f5" stroke-width="1"/><line x1="909.0" y1="55" x2="909.0" y2="450" stroke="#f4f4f5" stroke-width="1"/><text x="909.0" y="466" font-size="11" fill="#71717a" text-anchor="middle" font-family="-apple-system, BlinkMacSystemFont, sans-serif">W40</text><text x="65.0" y="466" font-size="11" fill="#71717a" text-anchor="middle" font-family="-apple-system, BlinkMacSystemFont, sans-serif">Day 1</text>

  <!-- Trajectory Lines -->
  <path d="M 65.0,450.0 L 68.0,450.0 L 71.0,449.9 L 74.1,449.9 L 77.1,449.7 L 80.1,449.4 L 83.1,449.2 L 86.2,449.0 L 89.2,448.7 L 92.2,448.5 L 95.2,448.3 L 98.3,448.0 L 101.3,447.8 L 104.3,447.6 L 107.3,447.3 L 110.4,447.1 L 113.4,446.8 L 116.4,446.6 L 119.4,446.4 L 122.5,446.1 L 125.5,445.9 L 128.5,445.7 L 131.5,445.4 L 134.6,445.2 L 137.6,444.9 L 140.6,444.7 L 143.6,444.5 L 146.7,444.2 L 149.7,444.0 L 152.7,443.8 L 155.7,443.5 L 158.8,443.3 L 161.8,443.0 L 164.8,442.8 L 167.8,442.6 L 170.9,442.3 L 173.9,442.1 L 176.9,441.9 L 179.9,441.6 L 183.0,441.4 L 186.0,441.2 L 189.0,440.9 L 192.0,440.7 L 195.1,440.4 L 198.1,440.2 L 201.1,440.0 L 204.1,439.7 L 207.2,439.5 L 210.2,439.3 L 213.2,439.0 L 216.2,438.8 L 219.3,438.5 L 222.3,438.3 L 225.3,438.1 L 228.3,437.8 L 231.4,430.5 L 234.4,423.5 L 237.4,416.5 L 240.4,409.4 L 243.5,402.4 L 246.5,395.4 L 249.5,388.4 L 252.5,381.4 L 255.6,374.3 L 258.6,367.3 L 261.6,360.3 L 264.6,353.3 L 267.7,346.2 L 270.7,339.2 L 273.7,332.2 L 276.7,325.2 L 279.8,318.2 L 282.8,311.1 L 285.8,304.1 L 288.8,300.8 L 291.9,297.3 L 294.9,293.8 L 297.9,290.2 L 300.9,286.7 L 304.0,283.2 L 307.0,279.7 L 310.0,276.2 L 313.0,272.7 L 316.1,269.2 L 319.1,265.7 L 322.1,262.2 L 325.1,258.6 L 328.2,255.1 L 331.2,251.6 L 334.2,248.1 L 337.2,244.6 L 340.3,241.1 L 343.3,237.6 L 346.3,234.1 L 349.3,230.6 L 352.4,227.0 L 355.4,223.5 L 358.4,220.0 L 361.4,216.5 L 364.5,213.0 L 367.5,211.5 L 370.5,210.9 L 373.5,210.3 L 376.6,209.7 L 379.6,209.1 L 382.6,208.5 L 385.6,207.9 L 388.7,207.2 L 391.7,206.6 L 394.7,206.0 L 397.7,205.4 L 400.8,204.8 L 403.8,204.2 L 406.8,203.6 L 409.8,203.0 L 412.9,202.4 L 415.9,201.7 L 418.9,201.1 L 421.9,200.5 L 425.0,199.9 L 428.0,199.3 L 431.0,198.7 L 434.0,198.1 L 437.1,197.5 L 440.1,196.9 L 443.1,196.3 L 446.1,195.6 L 449.2,195.0 L 452.2,194.4 L 455.2,193.8 L 458.2,193.2 L 461.3,192.6 L 464.3,192.0 L 467.3,191.4 L 470.3,190.8 L 473.4,190.2 L 476.4,189.5 L 479.4,188.9 L 482.4,188.3 L 485.5,187.7 L 488.5,187.1 L 491.5,186.5 L 494.5,185.9 L 497.6,185.3 L 500.6,184.7 L 503.6,184.0 L 506.6,183.4 L 509.7,182.8 L 512.7,182.2 L 515.7,181.6 L 518.7,181.0 L 521.8,180.4 L 524.8,179.8 L 527.8,179.2 L 530.8,178.6 L 533.9,177.9 L 536.9,177.3 L 539.9,176.7 L 542.9,176.1 L 546.0,175.5 L 549.0,174.9 L 552.0,174.3 L 555.0,173.7 L 558.1,173.1 L 561.1,172.5 L 564.1,171.8 L 567.1,171.2 L 570.2,170.6 L 573.2,170.0 L 576.2,169.4 L 579.2,168.8 L 582.3,168.2 L 585.3,167.6 L 588.3,167.0 L 591.3,166.3 L 594.4,165.7 L 597.4,165.1 L 600.4,164.5 L 603.4,163.9 L 606.5,163.3 L 609.5,162.7 L 612.5,162.1 L 615.5,161.5 L 618.6,160.9 L 621.6,160.2 L 624.6,159.6 L 627.6,159.0 L 630.7,158.4 L 633.7,157.8 L 636.7,157.2 L 639.7,156.6 L 642.8,156.0 L 645.8,155.4 L 648.8,154.8 L 651.8,154.1 L 654.9,153.5 L 657.9,152.9 L 660.9,152.3 L 663.9,151.7 L 667.0,151.1 L 670.0,150.5 L 673.0,149.9 L 676.0,149.3 L 679.1,148.6 L 682.1,148.0 L 685.1,147.4 L 688.1,146.8 L 691.2,146.2 L 694.2,145.6 L 697.2,145.0 L 700.2,144.4 L 703.3,143.8 L 706.3,143.2 L 709.3,142.5 L 712.3,141.9 L 715.4,141.3 L 718.4,140.7 L 721.4,140.1 L 724.4,139.5 L 727.5,138.9 L 730.5,138.3 L 733.5,137.7 L 736.5,137.1 L 739.6,136.4 L 742.6,135.8 L 745.6,135.2 L 748.6,134.6 L 751.7,134.0 L 754.7,133.4 L 757.7,132.8 L 760.7,132.2 L 763.8,131.6 L 766.8,130.9 L 769.8,130.3 L 772.8,129.7 L 775.9,129.1 L 778.9,128.5 L 781.9,127.9 L 784.9,127.3 L 788.0,126.7 L 791.0,126.1 L 794.0,125.5 L 797.0,124.8 L 800.1,124.2 L 803.1,123.6 L 806.1,123.0 L 809.1,122.4 L 812.2,121.8 L 815.2,121.2 L 818.2,120.6 L 821.2,120.0 L 824.3,119.4 L 827.3,118.7 L 830.3,118.1 L 833.3,117.5 L 836.4,116.9 L 839.4,116.3 L 842.4,115.7 L 845.4,115.1 L 848.5,114.5 L 851.5,113.9 L 854.5,113.3 L 857.5,112.6 L 860.6,112.0 L 863.6,111.4 L 866.6,110.8 L 869.6,110.7 L 872.7,110.6 L 875.7,110.5 L 878.7,110.4 L 881.7,110.3 L 884.8,110.2 L 887.8,110.1 L 890.8,109.9 L 893.8,109.8 L 896.9,109.7 L 899.9,109.6 L 902.9,109.5 L 905.9,109.4 L 909.0,109.3 L 912.0,109.2 L 915.0,109.0" fill="none" stroke="#e11d48" stroke-width="3" stroke-linecap="round" stroke-linejoin="round"/>
  <path d="M 65.0,428.8 L 68.0,375.1 L 71.0,351.3 L 74.1,335.0 L 77.1,318.6 L 80.1,309.4 L 83.1,303.4 L 86.2,297.1 L 89.2,291.0 L 92.2,287.6 L 95.2,285.1 L 98.3,281.6 L 101.3,278.7 L 104.3,276.3 L 107.3,274.6 L 110.4,272.7 L 113.4,271.5 L 116.4,270.4 L 119.4,268.8 L 122.5,267.4" fill="none" stroke="#0284c7" stroke-width="3.5" stroke-linecap="round" stroke-linejoin="round"/>

  <!-- Live Mascot Emojis on Tips -->
  <text x="128.5" y="273.4" font-size="20">🐋</text>
  <text x="895.0" y="101.0" font-size="20">🦞</text>

  <!-- Whale reference line (today's level) -->
  <line x1="65" y1="267.4" x2="915" y2="267.4" stroke="#a1a1aa" stroke-width="1.5" stroke-dasharray="4 4"/>
  <text x="915" y="261.4" font-size="11" fill="#71717a" text-anchor="end" font-family="-apple-system, BlinkMacSystemFont, sans-serif">🐋 today · 207,969★</text>

  <!-- Projection fan: current / average / slowing pace -->
  <path d="M 122.5,267.4 L 125.5,266.0 L 128.5,264.5 L 131.5,263.1 L 134.6,261.6 L 137.6,260.2 L 140.6,258.7 L 143.6,257.2 L 146.7,255.8 L 149.7,254.3 L 152.7,252.9 L 155.7,251.4 L 158.8,250.0 L 161.8,248.5 L 164.8,247.0 L 167.8,245.6 L 170.9,244.1 L 173.9,242.7 L 176.9,241.2 L 179.9,239.8 L 183.0,238.3 L 186.0,236.9 L 189.0,235.4 L 192.0,233.9 L 195.1,232.5 L 198.1,231.0 L 201.1,229.6 L 204.1,228.1 L 207.2,226.7 L 210.2,225.2 L 213.2,223.7 L 216.2,222.3 L 219.3,220.8 L 222.3,219.4 L 225.3,217.9 L 228.3,216.5 L 231.4,215.0 L 234.4,213.5 L 237.4,212.1 L 240.4,210.6 L 243.5,209.2 L 246.5,207.7 L 249.5,206.3 L 252.5,204.8 L 255.6,203.3 L 258.6,201.9 L 261.6,200.4 L 264.6,199.0 L 267.7,197.5 L 270.7,196.1 L 273.7,194.6 L 276.7,193.1 L 279.8,191.7 L 282.8,190.2 L 285.8,188.8 L 288.8,187.3 L 291.9,185.9 L 294.9,184.4 L 297.9,182.9 L 300.9,181.5 L 304.0,180.0 L 307.0,178.6 L 310.0,177.1 L 313.0,175.7 L 316.1,174.2 L 319.1,172.7 L 322.1,171.3 L 325.1,169.8 L 328.2,168.4 L 331.2,166.9 L 334.2,165.5 L 337.2,164.0 L 340.3,162.5 L 343.3,161.1 L 346.3,159.6 L 349.3,158.2 L 352.4,156.7 L 355.4,155.3 L 358.4,153.8 L 361.4,152.3 L 364.5,150.9 L 367.5,149.4 L 370.5,148.0 L 373.5,146.5 L 376.6,145.1 L 379.6,143.6 L 382.6,142.1 L 385.6,140.7 L 388.7,139.2 L 391.7,137.8 L 394.7,136.3 L 397.7,134.9 L 400.8,133.4 L 403.8,131.9 L 406.8,130.5 L 409.8,129.0 L 412.9,127.6 L 415.9,126.1 L 418.9,124.7 L 421.9,123.2 L 425.0,121.7 L 428.0,120.3 L 431.0,118.8 L 434.0,117.4 L 437.1,115.9 L 440.1,114.5 L 443.1,113.0 L 446.1,111.5 L 449.2,110.1 L 452.2,108.6" fill="none" stroke="#0ea5e9" stroke-width="2" stroke-dasharray="2 3" stroke-linecap="round"/>
  <circle cx="452.2" cy="109.0" r="4" fill="#0ea5e9"/>
  <text x="452.2" y="101.0" font-size="11" font-weight="700" fill="#0ea5e9" text-anchor="middle" paint-order="stroke" stroke="#ffffff" stroke-width="3" font-family="-apple-system, BlinkMacSystemFont, sans-serif">current pace ≈ Dec 20, 2026</text>

  <path d="M 122.5,260.8 L 125.5,258.6 L 128.5,256.5 L 131.5,254.4 L 134.6,252.5 L 137.6,250.7 L 140.6,248.9 L 143.6,247.2 L 146.7,245.5 L 149.7,243.9 L 152.7,242.4 L 155.7,240.9 L 158.8,239.5 L 161.8,238.1 L 164.8,236.7 L 167.8,235.4 L 170.9,234.1 L 173.9,232.9 L 176.9,231.7 L 179.9,230.5 L 183.0,229.4 L 186.0,228.2 L 189.0,227.2 L 192.0,226.1 L 195.1,225.0 L 198.1,224.0 L 201.1,223.0 L 204.1,222.1 L 207.2,221.1 L 210.2,220.2 L 213.2,219.3 L 216.2,218.4 L 219.3,217.5 L 222.3,216.6 L 225.3,215.8 L 228.3,214.9 L 231.4,214.1 L 234.4,213.3 L 237.4,212.5 L 240.4,211.8 L 243.5,211.0 L 246.5,210.2 L 249.5,209.5 L 252.5,208.8 L 255.6,208.1 L 258.6,207.4 L 261.6,206.7 L 264.6,206.0 L 267.7,205.3 L 270.7,204.7 L 273.7,204.0 L 276.7,203.4 L 279.8,202.7 L 282.8,202.1 L 285.8,201.5 L 288.8,200.9 L 291.9,200.3 L 294.9,199.7 L 297.9,199.1 L 300.9,198.5 L 304.0,198.0 L 307.0,197.4 L 310.0,196.8 L 313.0,196.3 L 316.1,195.7 L 319.1,195.2 L 322.1,194.7 L 325.1,194.2 L 328.2,193.6 L 331.2,193.1 L 334.2,192.6 L 337.2,192.1 L 340.3,191.6 L 343.3,191.1 L 346.3,190.6 L 349.3,190.2 L 352.4,189.7 L 355.4,189.2 L 358.4,188.8 L 361.4,188.3 L 364.5,187.8 L 367.5,187.4 L 370.5,186.9 L 373.5,186.5 L 376.6,186.1 L 379.6,185.6 L 382.6,185.2 L 385.6,184.8 L 388.7,184.4 L 391.7,183.9 L 394.7,183.5 L 397.7,183.1 L 400.8,182.7 L 403.8,182.3 L 406.8,181.9 L 409.8,181.5 L 412.9,181.1 L 415.9,180.7 L 418.9,180.3 L 421.9,180.0 L 425.0,179.6 L 428.0,179.2 L 431.0,178.8 L 434.0,178.5 L 437.1,178.1 L 440.1,177.7 L 443.1,177.4 L 446.1,177.0 L 449.2,176.7 L 452.2,176.3 L 455.2,176.0 L 458.2,175.6 L 461.3,175.3 L 464.3,174.9 L 467.3,174.6 L 470.3,174.2 L 473.4,173.9 L 476.4,173.6 L 479.4,173.2 L 482.4,172.9 L 485.5,172.6 L 488.5,172.3 L 491.5,172.0 L 494.5,171.6 L 497.6,171.3 L 500.6,171.0 L 503.6,170.7 L 506.6,170.4 L 509.7,170.1 L 512.7,169.8 L 515.7,169.5 L 518.7,169.2 L 521.8,168.9 L 524.8,168.6 L 527.8,168.3 L 530.8,168.0 L 533.9,167.7 L 536.9,167.4 L 539.9,167.1 L 542.9,166.8 L 546.0,166.5 L 549.0,166.3 L 552.0,166.0 L 555.0,165.7 L 558.1,165.4 L 561.1,165.2 L 564.1,164.9 L 567.1,164.6 L 570.2,164.3 L 573.2,164.1 L 576.2,163.8 L 579.2,163.5 L 582.3,163.3 L 585.3,163.0 L 588.3,162.7 L 591.3,162.5 L 594.4,162.2 L 597.4,162.0 L 600.4,161.7 L 603.4,161.5 L 606.5,161.2 L 609.5,161.0 L 612.5,160.7 L 615.5,160.5 L 618.6,160.2 L 621.6,160.0 L 624.6,159.7 L 627.6,159.5 L 630.7,159.2 L 633.7,159.0 L 636.7,158.8 L 639.7,158.5 L 642.8,158.3 L 645.8,158.0 L 648.8,157.8 L 651.8,157.6 L 654.9,157.4 L 657.9,157.1 L 660.9,156.9 L 663.9,156.7 L 667.0,156.4 L 670.0,156.2 L 673.0,156.0 L 676.0,155.8 L 679.1,155.5 L 682.1,155.3 L 685.1,155.1 L 688.1,154.9 L 691.2,154.7 L 694.2,154.4 L 697.2,154.2 L 700.2,154.0 L 703.3,153.8 L 706.3,153.6 L 709.3,153.4 L 712.3,153.2 L 715.4,152.9 L 718.4,152.7 L 721.4,152.5 L 724.4,152.3 L 727.5,152.1 L 730.5,151.9 L 733.5,151.7 L 736.5,151.5 L 739.6,151.3 L 742.6,151.1 L 745.6,150.9 L 748.6,150.7 L 751.7,150.5 L 754.7,150.3 L 757.7,150.1 L 760.7,149.9 L 763.8,149.7 L 766.8,149.5 L 769.8,149.3 L 772.8,149.1 L 775.9,148.9 L 778.9,148.7 L 781.9,148.6 L 784.9,148.4 L 788.0,148.2 L 791.0,148.0 L 794.0,147.8 L 797.0,147.6 L 800.1,147.4 L 803.1,147.2 L 806.1,147.1 L 809.1,146.9 L 812.2,146.7 L 815.2,146.5 L 818.2,146.3 L 821.2,146.1 L 824.3,146.0 L 827.3,145.8 L 830.3,145.6 L 833.3,145.4 L 836.4,145.2 L 839.4,145.1 L 842.4,144.9 L 845.4,144.7 L 848.5,144.5 L 851.5,144.4 L 854.5,144.2 L 857.5,144.0 L 860.6,143.9 L 863.6,143.7 L 866.6,143.5 L 869.6,143.3 L 872.7,143.2 L 875.7,143.0 L 878.7,142.8 L 881.7,142.7 L 884.8,142.5 L 887.8,142.3 L 890.8,142.2 L 893.8,142.0 L 896.9,141.8 L 899.9,141.7 L 902.9,141.5 L 905.9,141.4 L 909.0,141.2 L 912.0,141.0 L 915.0,140.9 L 918.0,140.7 L 921.0,140.5 L 924.1,140.4 L 927.1,140.2 L 930.1,140.1 L 933.1,139.9 L 936.2,139.8 L 939.2,139.6 L 942.2,139.4 L 945.2,139.3 L 948.3,139.1 L 951.3,139.0 L 954.3,138.8 L 957.3,138.7 L 960.4,138.5 L 963.4,138.4 L 966.4,138.2 L 969.4,138.1 L 972.5,137.9 L 975.5,137.8 L 978.5,137.6 L 981.5,137.5 L 984.6,137.3 L 987.6,137.2 L 990.6,137.0 L 993.6,136.9 L 996.7,136.7 L 999.7,136.6 L 1002.7,136.4 L 1005.7,136.3 L 1008.8,136.1 L 1011.8,136.0 L 1014.8,135.9 L 1017.8,135.7 L 1020.9,135.6 L 1023.9,135.4 L 1026.9,135.3 L 1029.9,135.1 L 1033.0,135.0 L 1036.0,134.9 L 1039.0,134.7 L 1042.0,134.6 L 1045.1,134.4 L 1048.1,134.3 L 1051.1,134.2 L 1054.1,134.0 L 1057.2,133.9 L 1060.2,133.7 L 1063.2,133.6 L 1066.2,133.5 L 1069.3,133.3 L 1072.3,133.2 L 1075.3,133.1 L 1078.3,132.9 L 1081.4,132.8 L 1084.4,132.7 L 1087.4,132.5 L 1090.4,132.4 L 1093.5,132.3 L 1096.5,132.1 L 1099.5,132.0 L 1102.5,131.9 L 1105.6,131.7 L 1108.6,131.6 L 1111.6,131.5 L 1114.6,131.3 L 1117.7,131.2 L 1120.7,131.1 L 1123.7,130.9 L 1126.7,130.8 L 1129.8,130.7 L 1132.8,130.6 L 1135.8,130.4 L 1138.8,130.3 L 1141.9,130.2 L 1144.9,130.1 L 1147.9,129.9 L 1150.9,129.8 L 1154.0,129.7 L 1157.0,129.6 L 1160.0,129.4 L 1163.0,129.3 L 1166.1,129.2 L 1169.1,129.1 L 1172.1,128.9 L 1175.1,128.8 L 1178.2,128.7 L 1181.2,128.6 L 1184.2,128.4 L 1187.2,128.3 L 1190.3,128.2 L 1193.3,128.1 L 1196.3,128.0 L 1199.3,127.8 L 1202.4,127.7 L 1205.4,127.6 L 1208.4,127.5 L 1211.4,127.4 L 1214.5,127.2 L 1217.5,127.1 L 1220.5,127.0 L 1223.5,126.9 L 1226.6,126.8 L 1229.6,126.6 L 1232.6,126.5 L 1235.6,126.4 L 1238.7,126.3 L 1241.7,126.2 L 1244.7,126.1 L 1247.7,125.9 L 1250.8,125.8 L 1253.8,125.7 L 1256.8,125.6 L 1259.8,125.5 L 1262.9,125.4 L 1265.9,125.3 L 1268.9,125.1 L 1271.9,125.0 L 1275.0,124.9 L 1278.0,124.8 L 1281.0,124.7 L 1284.0,124.6 L 1287.1,124.5 L 1290.1,124.4 L 1293.1,124.2 L 1296.1,124.1 L 1299.2,124.0 L 1302.2,123.9 L 1305.2,123.8 L 1308.2,123.7 L 1311.3,123.6 L 1314.3,123.5 L 1317.3,123.4 L 1320.3,123.2 L 1323.4,123.1 L 1326.4,123.0 L 1329.4,122.9 L 1332.4,122.8 L 1335.5,122.7 L 1338.5,122.6 L 1341.5,122.5 L 1344.5,122.4 L 1347.6,122.3 L 1350.6,122.2 L 1353.6,122.1 L 1356.6,122.0 L 1359.7,121.9 L 1362.7,121.8 L 1365.7,121.6 L 1368.7,121.5 L 1371.8,121.4 L 1374.8,121.3 L 1377.8,121.2 L 1380.8,121.1 L 1383.9,121.0 L 1386.9,120.9 L 1389.9,120.8 L 1392.9,120.7 L 1396.0,120.6 L 1399.0,120.5 L 1402.0,120.4 L 1405.0,120.3 L 1408.1,120.2 L 1411.1,120.1 L 1414.1,120.0 L 1417.1,119.9 L 1420.2,119.8 L 1423.2,119.7 L 1426.2,119.6 L 1429.2,119.5 L 1432.3,119.4 L 1435.3,119.3 L 1438.3,119.2 L 1441.3,119.1 L 1444.4,119.0 L 1447.4,118.9 L 1450.4,118.8 L 1453.4,118.7 L 1456.5,118.6 L 1459.5,118.5 L 1462.5,118.4 L 1465.5,118.3 L 1468.6,118.2 L 1471.6,118.1 L 1474.6,118.0 L 1477.6,117.9 L 1480.7,117.8 L 1483.7,117.7 L 1486.7,117.6 L 1489.7,117.5 L 1492.8,117.4 L 1495.8,117.3 L 1498.8,117.2 L 1501.8,117.1 L 1504.9,117.0 L 1507.9,117.0 L 1510.9,116.9 L 1513.9,116.8 L 1517.0,116.7 L 1520.0,116.6 L 1523.0,116.5 L 1526.0,116.4 L 1529.1,116.3 L 1532.1,116.2 L 1535.1,116.1 L 1538.1,116.0 L 1541.2,115.9 L 1544.2,115.8 L 1547.2,115.7 L 1550.2,115.6 L 1553.3,115.6 L 1556.3,115.5 L 1559.3,115.4 L 1562.3,115.3 L 1565.4,115.2 L 1568.4,115.1 L 1571.4,115.0 L 1574.4,114.9 L 1577.5,114.8 L 1580.5,114.7 L 1583.5,114.6 L 1586.5,114.6 L 1589.6,114.5 L 1592.6,114.4 L 1595.6,114.3 L 1598.6,114.2 L 1601.7,114.1 L 1604.7,114.0 L 1607.7,113.9 L 1610.7,113.8 L 1613.8,113.8 L 1616.8,113.7 L 1619.8,113.6 L 1622.8,113.5 L 1625.9,113.4 L 1628.9,113.3 L 1631.9,113.2 L 1634.9,113.1 L 1638.0,113.1 L 1641.0,113.0 L 1644.0,112.9 L 1647.0,112.8 L 1650.1,112.7 L 1653.1,112.6 L 1656.1,112.5 L 1659.1,112.4 L 1662.2,112.4 L 1665.2,112.3 L 1668.2,112.2 L 1671.2,112.1 L 1674.3,112.0 L 1677.3,111.9 L 1680.3,111.9 L 1683.3,111.8 L 1686.4,111.7 L 1689.4,111.6 L 1692.4,111.5 L 1695.4,111.4 L 1698.5,111.3 L 1701.5,111.3 L 1704.5,111.2 L 1707.5,111.1 L 1710.6,111.0 L 1713.6,110.9 L 1716.6,110.8 L 1719.6,110.8 L 1722.7,110.7 L 1725.7,110.6 L 1728.7,110.5 L 1731.7,110.4 L 1734.8,110.4 L 1737.8,110.3 L 1740.8,110.2 L 1743.8,110.1 L 1746.9,110.0 L 1749.9,109.9 L 1752.9,109.9 L 1755.9,109.8 L 1759.0,109.7 L 1762.0,109.6 L 1765.0,109.5 L 1768.0,109.5 L 1771.0,109.4 L 1774.1,109.3 L 1777.1,109.2 L 1780.1,109.1 L 1783.1,109.1 L 1786.2,109.0 L 1789.2,108.9" fill="none" stroke="#0284c7" stroke-width="2" stroke-dasharray="7 5" stroke-linecap="round"/>
  <circle cx="1789.2" cy="109.0" r="4" fill="#0284c7"/>
  <text x="1789.2" y="101.0" font-size="11" font-weight="700" fill="#0284c7" text-anchor="middle" paint-order="stroke" stroke="#ffffff" stroke-width="3" font-family="-apple-system, BlinkMacSystemFont, sans-serif">average pace ≈ Mar 5, 2028</text>

  <path d="M 122.5,271.3 L 125.5,271.0 L 128.5,270.8 L 131.5,270.6 L 134.6,270.5 L 137.6,270.4 L 140.6,270.3 L 143.6,270.3 L 146.7,270.2 L 149.7,270.2 L 152.7,270.2 L 155.7,270.1 L 158.8,270.1 L 161.8,270.1 L 164.8,270.1 L 167.8,270.1 L 170.9,270.1 L 173.9,270.1 L 176.9,270.1 L 179.9,270.1 L 183.0,270.1 L 186.0,270.1 L 189.0,270.1 L 192.0,270.1 L 195.1,270.1 L 198.1,270.1 L 201.1,270.1 L 204.1,270.1 L 207.2,270.1 L 210.2,270.1 L 213.2,270.1 L 216.2,270.1 L 219.3,270.1 L 222.3,270.1 L 225.3,270.1 L 228.3,270.1 L 231.4,270.1 L 234.4,270.1 L 237.4,270.1 L 240.4,270.1 L 243.5,270.1 L 246.5,270.1 L 249.5,270.1 L 252.5,270.1 L 255.6,270.1 L 258.6,270.1 L 261.6,270.1 L 264.6,270.1 L 267.7,270.1 L 270.7,270.1 L 273.7,270.1 L 276.7,270.1 L 279.8,270.1 L 282.8,270.1 L 285.8,270.1 L 288.8,270.1 L 291.9,270.1 L 294.9,270.1 L 297.9,270.1 L 300.9,270.1 L 304.0,270.1 L 307.0,270.1 L 310.0,270.1 L 313.0,270.1 L 316.1,270.1 L 319.1,270.1 L 322.1,270.1 L 325.1,270.1 L 328.2,270.1 L 331.2,270.1 L 334.2,270.1 L 337.2,270.1 L 340.3,270.1 L 343.3,270.1 L 346.3,270.1 L 349.3,270.1 L 352.4,270.1 L 355.4,270.1 L 358.4,270.1 L 361.4,270.1 L 364.5,270.1 L 367.5,270.1 L 370.5,270.1 L 373.5,270.1 L 376.6,270.1 L 379.6,270.1 L 382.6,270.1 L 385.6,270.1 L 388.7,270.1 L 391.7,270.1 L 394.7,270.1 L 397.7,270.1 L 400.8,270.1 L 403.8,270.1 L 406.8,270.1 L 409.8,270.1 L 412.9,270.1 L 415.9,270.1 L 418.9,270.1 L 421.9,270.1 L 425.0,270.1 L 428.0,270.1 L 431.0,270.1 L 434.0,270.1 L 437.1,270.1 L 440.1,270.1 L 443.1,270.1 L 446.1,270.1 L 449.2,270.1 L 452.2,270.1 L 455.2,270.1 L 458.2,270.1 L 461.3,270.1 L 464.3,270.1 L 467.3,270.1 L 470.3,270.1 L 473.4,270.1 L 476.4,270.1 L 479.4,270.1 L 482.4,270.1 L 485.5,270.1 L 488.5,270.1 L 491.5,270.1 L 494.5,270.1 L 497.6,270.1 L 500.6,270.1 L 503.6,270.1 L 506.6,270.1 L 509.7,270.1 L 512.7,270.1 L 515.7,270.1 L 518.7,270.1 L 521.8,270.1 L 524.8,270.1 L 527.8,270.1 L 530.8,270.1 L 533.9,270.1 L 536.9,270.1 L 539.9,270.1 L 542.9,270.1 L 546.0,270.1 L 549.0,270.1 L 552.0,270.1 L 555.0,270.1 L 558.1,270.1 L 561.1,270.1 L 564.1,270.1 L 567.1,270.1 L 570.2,270.1 L 573.2,270.1 L 576.2,270.1 L 579.2,270.1 L 582.3,270.1 L 585.3,270.1 L 588.3,270.1 L 591.3,270.1 L 594.4,270.1 L 597.4,270.1 L 600.4,270.1 L 603.4,270.1 L 606.5,270.1 L 609.5,270.1 L 612.5,270.1 L 615.5,270.1 L 618.6,270.1 L 621.6,270.1 L 624.6,270.1 L 627.6,270.1 L 630.7,270.1 L 633.7,270.1 L 636.7,270.1 L 639.7,270.1 L 642.8,270.1 L 645.8,270.1 L 648.8,270.1 L 651.8,270.1 L 654.9,270.1 L 657.9,270.1 L 660.9,270.1 L 663.9,270.1 L 667.0,270.1 L 670.0,270.1 L 673.0,270.1 L 676.0,270.1 L 679.1,270.1 L 682.1,270.1 L 685.1,270.1 L 688.1,270.1 L 691.2,270.1 L 694.2,270.1 L 697.2,270.1 L 700.2,270.1 L 703.3,270.1 L 706.3,270.1 L 709.3,270.1 L 712.3,270.1 L 715.4,270.1 L 718.4,270.1 L 721.4,270.1 L 724.4,270.1 L 727.5,270.1 L 730.5,270.1 L 733.5,270.1 L 736.5,270.1 L 739.6,270.1 L 742.6,270.1 L 745.6,270.1 L 748.6,270.1 L 751.7,270.1 L 754.7,270.1 L 757.7,270.1 L 760.7,270.1 L 763.8,270.1 L 766.8,270.1 L 769.8,270.1 L 772.8,270.1 L 775.9,270.1 L 778.9,270.1 L 781.9,270.1 L 784.9,270.1 L 788.0,270.1 L 791.0,270.1 L 794.0,270.1 L 797.0,270.1 L 800.1,270.1 L 803.1,270.1 L 806.1,270.1 L 809.1,270.1 L 812.2,270.1 L 815.2,270.1 L 818.2,270.1 L 821.2,270.1 L 824.3,270.1 L 827.3,270.1 L 830.3,270.1 L 833.3,270.1 L 836.4,270.1 L 839.4,270.1 L 842.4,270.1 L 845.4,270.1 L 848.5,270.1 L 851.5,270.1 L 854.5,270.1 L 857.5,270.1 L 860.6,270.1 L 863.6,270.1 L 866.6,270.1 L 869.6,270.1 L 872.7,270.1 L 875.7,270.1 L 878.7,270.1 L 881.7,270.1 L 884.8,270.1 L 887.8,270.1 L 890.8,270.1 L 893.8,270.1 L 896.9,270.1 L 899.9,270.1 L 902.9,270.1 L 905.9,270.1 L 909.0,270.1 L 912.0,270.1 L 915.0,270.1" fill="none" stroke="#a1a1aa" stroke-width="2" stroke-dasharray="4 4" stroke-linecap="round"/>
  <text x="915" y="264.1" font-size="11" font-weight="700" fill="#a1a1aa" text-anchor="end" paint-order="stroke" stroke="#ffffff" stroke-width="3" font-family="-apple-system, BlinkMacSystemFont, sans-serif">slowing pace: plateaus ~205k★ — no catch-up</text>

  <!-- X-Axis Label -->
  <text x="480.0" y="492" font-size="11.5" font-weight="700" fill="#71717a" text-anchor="middle" font-family="-apple-system, BlinkMacSystemFont, sans-serif">Weeks since Day 1 inception (each vertical line = 1 week)</text>
</svg>