<svg xmlns="http://www.w3.org/2000/svg" viewBox="0 0 960 500" width="100%" height="100%" style="background:#ffffff;border:1px solid #e4e4e7;border-radius:14px;">
  <!-- Header / Scoreboard -->
  <g transform="translate(65, 28)">
    <text x="0" y="4" font-size="16" font-weight="900" fill="#09090b" font-family="-apple-system, BlinkMacSystemFont, sans-serif">🐋 vs 🦞</text>
    <text x="75" y="4" font-size="12" fill="#71717a" font-family="-apple-system, BlinkMacSystemFont, sans-serif">📈 The battle is on · Bring the 🍿</text>
    
    <g transform="translate(320, 0)">
      <circle cx="6" cy="0" r="4.5" fill="#0284c7"/>
      <text x="16" y="4" font-size="12" font-weight="700" fill="#0284c7" font-family="-apple-system, BlinkMacSystemFont, sans-serif">🐋 deepseek-ai/deepseek-harness</text>
    </g>

    <g transform="translate(600, 0)">
      <circle cx="6" cy="0" r="4.5" fill="#e11d48"/>
      <text x="16" y="4" font-size="12" font-weight="700" fill="#e11d48" font-family="-apple-system, BlinkMacSystemFont, sans-serif">🦞 openclaw/openclaw</text>
    </g>
  </g>

  <!-- Grid Lines -->
  <line x1="65" y1="450.0" x2="915" y2="450.0" stroke="#f4f4f5" stroke-width="1"/><text x="55" y="454.0" font-size="11.5" fill="#71717a" text-anchor="end" font-family="-apple-system, BlinkMacSystemFont, sans-serif">0</text><line x1="65" y1="371.0" x2="915" y2="371.0" stroke="#f4f4f5" stroke-width="1"/><text x="55" y="375.0" font-size="11.5" fill="#71717a" text-anchor="end" font-family="-apple-system, BlinkMacSystemFont, sans-serif">90k</text><line x1="65" y1="292.0" x2="915" y2="292.0" stroke="#f4f4f5" stroke-width="1"/><text x="55" y="296.0" font-size="11.5" fill="#71717a" text-anchor="end" font-family="-apple-system, BlinkMacSystemFont, sans-serif">180k</text><line x1="65" y1="213.0" x2="915" y2="213.0" stroke="#f4f4f5" stroke-width="1"/><text x="55" y="217.0" font-size="11.5" fill="#71717a" text-anchor="end" font-family="-apple-system, BlinkMacSystemFont, sans-serif">270k</text><line x1="65" y1="134.0" x2="915" y2="134.0" stroke="#f4f4f5" stroke-width="1"/><text x="55" y="138.0" font-size="11.5" fill="#71717a" text-anchor="end" font-family="-apple-system, BlinkMacSystemFont, sans-serif">360k</text><line x1="65" y1="55.0" x2="915" y2="55.0" stroke="#f4f4f5" stroke-width="1"/><text x="55" y="59.0" font-size="11.5" fill="#71717a" text-anchor="end" font-family="-apple-system, BlinkMacSystemFont, sans-serif">450k</text>
  <line x1="83.8" y1="55" x2="83.8" y2="450" stroke="#f4f4f5" stroke-width="1"/><text x="83.8" y="466" font-size="11" fill="#71717a" text-anchor="middle" font-family="-apple-system, BlinkMacSystemFont, sans-serif">W1</text><line x1="105.8" y1="55" x2="105.8" y2="450" stroke="#f4f4f5" stroke-width="1"/><text x="105.8" y="466" font-size="11" fill="#71717a" text-anchor="middle" font-family="-apple-system, BlinkMacSystemFont, sans-serif">W2</text><line x1="127.7" y1="55" x2="127.7" y2="450" stroke="#f4f4f5" stroke-width="1"/><line x1="149.7" y1="55" x2="149.7" y2="450" stroke="#f4f4f5" stroke-width="1"/><text x="149.7" y="466" font-size="11" fill="#71717a" text-anchor="middle" font-family="-apple-system, BlinkMacSystemFont, sans-serif">W4</text><line x1="171.6" y1="55" x2="171.6" y2="450" stroke="#f4f4f5" stroke-width="1"/><line x1="193.6" y1="55" x2="193.6" y2="450" stroke="#f4f4f5" stroke-width="1"/><text x="193.6" y="466" font-size="11" fill="#71717a" text-anchor="middle" font-family="-apple-system, BlinkMacSystemFont, sans-serif">W6</text><line x1="215.6" y1="55" x2="215.6" y2="450" stroke="#f4f4f5" stroke-width="1"/><line x1="237.5" y1="55" x2="237.5" y2="450" stroke="#f4f4f5" stroke-width="1"/><text x="237.5" y="466" font-size="11" fill="#71717a" text-anchor="middle" font-family="-apple-system, BlinkMacSystemFont, sans-serif">W8</text><line x1="259.5" y1="55" x2="259.5" y2="450" stroke="#f4f4f5" stroke-width="1"/><line x1="281.4" y1="55" x2="281.4" y2="450" stroke="#f4f4f5" stroke-width="1"/><text x="281.4" y="466" font-size="11" fill="#71717a" text-anchor="middle" font-family="-apple-system, BlinkMacSystemFont, sans-serif">W10</text><line x1="303.4" y1="55" x2="303.4" y2="450" stroke="#f4f4f5" stroke-width="1"/><line x1="325.3" y1="55" x2="325.3" y2="450" stroke="#f4f4f5" stroke-width="1"/><text x="325.3" y="466" font-size="11" fill="#71717a" text-anchor="middle" font-family="-apple-system, BlinkMacSystemFont, sans-serif">W12</text><line x1="347.3" y1="55" x2="347.3" y2="450" stroke="#f4f4f5" stroke-width="1"/><line x1="369.2" y1="55" x2="369.2" y2="450" stroke="#f4f4f5" stroke-width="1"/><text x="369.2" y="466" font-size="11" fill="#71717a" text-anchor="middle" font-family="-apple-system, BlinkMacSystemFont, sans-serif">W14</text><line x1="391.2" y1="55" x2="391.2" y2="450" stroke="#f4f4f5" stroke-width="1"/><line x1="413.2" y1="55" x2="413.2" y2="450" stroke="#f4f4f5" stroke-width="1"/><text x="413.2" y="466" font-size="11" fill="#71717a" text-anchor="middle" font-family="-apple-system, BlinkMacSystemFont, sans-serif">W16</text><line x1="435.1" y1="55" x2="435.1" y2="450" stroke="#f4f4f5" stroke-width="1"/><line x1="457.1" y1="55" x2="457.1" y2="450" stroke="#f4f4f5" stroke-width="1"/><text x="457.1" y="466" font-size="11" fill="#71717a" text-anchor="middle" font-family="-apple-system, BlinkMacSystemFont, sans-serif">W18</text><line x1="479.0" y1="55" x2="479.0" y2="450" stroke="#f4f4f5" stroke-width="1"/><line x1="501.0" y1="55" x2="501.0" y2="450" stroke="#f4f4f5" stroke-width="1"/><text x="501.0" y="466" font-size="11" fill="#71717a" text-anchor="middle" font-family="-apple-system, BlinkMacSystemFont, sans-serif">W20</text><line x1="522.9" y1="55" x2="522.9" y2="450" stroke="#f4f4f5" stroke-width="1"/><line x1="544.9" y1="55" x2="544.9" y2="450" stroke="#f4f4f5" stroke-width="1"/><line x1="566.8" y1="55" x2="566.8" y2="450" stroke="#f4f4f5" stroke-width="1"/><line x1="588.8" y1="55" x2="588.8" y2="450" stroke="#f4f4f5" stroke-width="1"/><text x="588.8" y="466" font-size="11" fill="#71717a" text-anchor="middle" font-family="-apple-system, BlinkMacSystemFont, sans-serif">W24</text><line x1="610.8" y1="55" x2="610.8" y2="450" stroke="#f4f4f5" stroke-width="1"/><line x1="632.7" y1="55" x2="632.7" y2="450" stroke="#f4f4f5" stroke-width="1"/><line x1="654.7" y1="55" x2="654.7" y2="450" stroke="#f4f4f5" stroke-width="1"/><line x1="676.6" y1="55" x2="676.6" y2="450" stroke="#f4f4f5" stroke-width="1"/><text x="676.6" y="466" font-size="11" fill="#71717a" text-anchor="middle" font-family="-apple-system, BlinkMacSystemFont, sans-serif">W28</text><line x1="698.6" y1="55" x2="698.6" y2="450" stroke="#f4f4f5" stroke-width="1"/><line x1="720.5" y1="55" x2="720.5" y2="450" stroke="#f4f4f5" stroke-width="1"/><line x1="742.5" y1="55" x2="742.5" y2="450" stroke="#f4f4f5" stroke-width="1"/><line x1="764.4" y1="55" x2="764.4" y2="450" stroke="#f4f4f5" stroke-width="1"/><text x="764.4" y="466" font-size="11" fill="#71717a" text-anchor="middle" font-family="-apple-system, BlinkMacSystemFont, sans-serif">W32</text><line x1="786.4" y1="55" x2="786.4" y2="450" stroke="#f4f4f5" stroke-width="1"/><line x1="808.4" y1="55" x2="808.4" y2="450" stroke="#f4f4f5" stroke-width="1"/><line x1="830.3" y1="55" x2="830.3" y2="450" stroke="#f4f4f5" stroke-width="1"/><line x1="852.3" y1="55" x2="852.3" y2="450" stroke="#f4f4f5" stroke-width="1"/><text x="852.3" y="466" font-size="11" fill="#71717a" text-anchor="middle" font-family="-apple-system, BlinkMacSystemFont, sans-serif">W36</text><line x1="874.2" y1="55" x2="874.2" y2="450" stroke="#f4f4f5" stroke-width="1"/><line x1="896.2" y1="55" x2="896.2" y2="450" stroke="#f4f4f5" stroke-width="1"/><text x="896.2" y="466" font-size="11" fill="#71717a" text-anchor="middle" font-family="-apple-system, BlinkMacSystemFont, sans-serif">W38</text><text x="65.0" y="466" font-size="11" fill="#71717a" text-anchor="middle" font-family="-apple-system, BlinkMacSystemFont, sans-serif">Day 1</text>

  <!-- Trajectory Lines -->
  <path d="M 65.0,450.0 L 68.1,450.0 L 71.3,449.9 L 74.4,449.9 L 77.5,449.7 L 80.7,449.4 L 83.8,449.2 L 87.0,449.0 L 90.1,448.7 L 93.2,448.5 L 96.4,448.3 L 99.5,448.0 L 102.6,447.8 L 105.8,447.6 L 108.9,447.3 L 112.0,447.1 L 115.2,446.8 L 118.3,446.6 L 121.5,446.4 L 124.6,446.1 L 127.7,445.9 L 130.9,445.7 L 134.0,445.4 L 137.1,445.2 L 140.3,444.9 L 143.4,444.7 L 146.5,444.5 L 149.7,444.2 L 152.8,444.0 L 156.0,443.8 L 159.1,443.5 L 162.2,443.3 L 165.4,443.0 L 168.5,442.8 L 171.6,442.6 L 174.8,442.3 L 177.9,442.1 L 181.1,441.9 L 184.2,441.6 L 187.3,441.4 L 190.5,441.2 L 193.6,440.9 L 196.7,440.7 L 199.9,440.4 L 203.0,440.2 L 206.1,440.0 L 209.3,439.7 L 212.4,439.5 L 215.6,439.3 L 218.7,439.0 L 221.8,438.8 L 225.0,438.5 L 228.1,438.3 L 231.2,438.1 L 234.4,437.8 L 237.5,430.5 L 240.6,423.5 L 243.8,416.5 L 246.9,409.4 L 250.1,402.4 L 253.2,395.4 L 256.3,388.4 L 259.5,381.4 L 262.6,374.3 L 265.7,367.3 L 268.9,360.3 L 272.0,353.3 L 275.1,346.2 L 278.3,339.2 L 281.4,332.2 L 284.6,325.2 L 287.7,318.2 L 290.8,311.1 L 294.0,304.1 L 297.1,300.8 L 300.2,297.3 L 303.4,293.8 L 306.5,290.2 L 309.6,286.7 L 312.8,283.2 L 315.9,279.7 L 319.1,276.2 L 322.2,272.7 L 325.3,269.2 L 328.5,265.7 L 331.6,262.2 L 334.7,258.6 L 337.9,255.1 L 341.0,251.6 L 344.2,248.1 L 347.3,244.6 L 350.4,241.1 L 353.6,237.6 L 356.7,234.1 L 359.8,230.6 L 363.0,227.0 L 366.1,223.5 L 369.2,220.0 L 372.4,216.5 L 375.5,213.0 L 378.7,211.5 L 381.8,210.9 L 384.9,210.3 L 388.1,209.7 L 391.2,209.1 L 394.3,208.5 L 397.5,207.9 L 400.6,207.2 L 403.7,206.6 L 406.9,206.0 L 410.0,205.4 L 413.2,204.8 L 416.3,204.2 L 419.4,203.6 L 422.6,203.0 L 425.7,202.4 L 428.8,201.7 L 432.0,201.1 L 435.1,200.5 L 438.2,199.9 L 441.4,199.3 L 444.5,198.7 L 447.7,198.1 L 450.8,197.5 L 453.9,196.9 L 457.1,196.3 L 460.2,195.6 L 463.3,195.0 L 466.5,194.4 L 469.6,193.8 L 472.7,193.2 L 475.9,192.6 L 479.0,192.0 L 482.2,191.4 L 485.3,190.8 L 488.4,190.2 L 491.6,189.5 L 494.7,188.9 L 497.8,188.3 L 501.0,187.7 L 504.1,187.1 L 507.3,186.5 L 510.4,185.9 L 513.5,185.3 L 516.7,184.7 L 519.8,184.0 L 522.9,183.4 L 526.1,182.8 L 529.2,182.2 L 532.3,181.6 L 535.5,181.0 L 538.6,180.4 L 541.8,179.8 L 544.9,179.2 L 548.0,178.6 L 551.2,177.9 L 554.3,177.3 L 557.4,176.7 L 560.6,176.1 L 563.7,175.5 L 566.8,174.9 L 570.0,174.3 L 573.1,173.7 L 576.3,173.1 L 579.4,172.5 L 582.5,171.8 L 585.7,171.2 L 588.8,170.6 L 591.9,170.0 L 595.1,169.4 L 598.2,168.8 L 601.3,168.2 L 604.5,167.6 L 607.6,167.0 L 610.8,166.3 L 613.9,165.7 L 617.0,165.1 L 620.2,164.5 L 623.3,163.9 L 626.4,163.3 L 629.6,162.7 L 632.7,162.1 L 635.8,161.5 L 639.0,160.9 L 642.1,160.2 L 645.3,159.6 L 648.4,159.0 L 651.5,158.4 L 654.7,157.8 L 657.8,157.2 L 660.9,156.6 L 664.1,156.0 L 667.2,155.4 L 670.4,154.8 L 673.5,154.1 L 676.6,153.5 L 679.8,152.9 L 682.9,152.3 L 686.0,151.7 L 689.2,151.1 L 692.3,150.5 L 695.4,149.9 L 698.6,149.3 L 701.7,148.6 L 704.9,148.0 L 708.0,147.4 L 711.1,146.8 L 714.3,146.2 L 717.4,145.6 L 720.5,145.0 L 723.7,144.4 L 726.8,143.8 L 729.9,143.2 L 733.1,142.5 L 736.2,141.9 L 739.4,141.3 L 742.5,140.7 L 745.6,140.1 L 748.8,139.5 L 751.9,138.9 L 755.0,138.3 L 758.2,137.7 L 761.3,137.1 L 764.4,136.4 L 767.6,135.8 L 770.7,135.2 L 773.9,134.6 L 777.0,134.0 L 780.1,133.4 L 783.3,132.8 L 786.4,132.2 L 789.5,131.6 L 792.7,130.9 L 795.8,130.3 L 798.9,129.7 L 802.1,129.1 L 805.2,128.5 L 808.4,127.9 L 811.5,127.3 L 814.6,126.7 L 817.8,126.1 L 820.9,125.5 L 824.0,124.8 L 827.2,124.2 L 830.3,123.6 L 833.5,123.0 L 836.6,122.4 L 839.7,121.8 L 842.9,121.2 L 846.0,120.6 L 849.1,120.0 L 852.3,119.4 L 855.4,118.7 L 858.5,118.1 L 861.7,117.5 L 864.8,116.9 L 868.0,116.3 L 871.1,115.7 L 874.2,115.1 L 877.4,114.5 L 880.5,113.9 L 883.6,113.3 L 886.8,112.6 L 889.9,112.0 L 893.0,111.4 L 896.2,110.8 L 899.3,110.7 L 902.5,110.6 L 905.6,110.5 L 908.7,110.4 L 911.9,110.3 L 915.0,110.2" fill="none" stroke="#e11d48" stroke-width="3" stroke-linecap="round" stroke-linejoin="round"/>
  <path d="M 65.0,428.8 L 68.1,375.1 L 71.3,351.3 L 74.4,335.0 L 77.5,318.6 L 80.7,309.4 L 83.8,303.4 L 87.0,297.1 L 90.1,291.0 L 93.2,289.9" fill="none" stroke="#0284c7" stroke-width="3.5" stroke-linecap="round" stroke-linejoin="round"/>

  <!-- Live Mascot Emojis on Tips -->
  <text x="99.2" y="295.9" font-size="20">🐋</text>
  <text x="895.0" y="102.2" font-size="20">🦞</text>

  <!-- Whale reference line (today's level) -->
  <line x1="65" y1="289.9" x2="915" y2="289.9" stroke="#a1a1aa" stroke-width="1.5" stroke-dasharray="4 4"/>
  <text x="915" y="283.9" font-size="11" fill="#71717a" text-anchor="end" font-family="-apple-system, BlinkMacSystemFont, sans-serif">🐋 today · 182,371★</text>

  <!-- Projection fan: current / average / slowing pace -->
  <path d="M 93.2,289.9 L 96.4,286.3 L 99.5,282.8 L 102.6,279.2 L 105.8,275.6 L 108.9,272.1 L 112.0,268.5 L 115.2,264.9 L 118.3,261.3 L 121.5,257.8 L 124.6,254.2 L 127.7,250.6 L 130.9,247.0 L 134.0,243.5 L 137.1,239.9 L 140.3,236.3 L 143.4,232.7 L 146.5,229.2 L 149.7,225.6 L 152.8,222.0 L 156.0,218.5 L 159.1,214.9 L 162.2,211.3 L 165.4,207.7 L 168.5,204.2 L 171.6,200.6 L 174.8,197.0 L 177.9,193.4 L 181.1,189.9 L 184.2,186.3 L 187.3,182.7 L 190.5,179.1 L 193.6,175.6 L 196.7,172.0 L 199.9,168.4 L 203.0,164.8 L 206.1,161.3 L 209.3,157.7 L 212.4,154.1 L 215.6,150.6 L 218.7,147.0 L 221.8,143.4 L 225.0,139.8 L 228.1,136.3 L 231.2,132.7 L 234.4,129.1 L 237.5,125.5 L 240.6,122.0 L 243.8,118.4 L 246.9,114.8 L 250.1,111.2 L 253.2,107.7" fill="none" stroke="#0ea5e9" stroke-width="2" stroke-dasharray="2 3" stroke-linecap="round"/>
  <circle cx="253.2" cy="110.2" r="4" fill="#0ea5e9"/>
  <text x="253.2" y="102.2" font-size="11" font-weight="700" fill="#0ea5e9" text-anchor="middle" paint-order="stroke" stroke="#ffffff" stroke-width="3" font-family="-apple-system, BlinkMacSystemFont, sans-serif">current pace ≈ Oct 12, 2026</text>

  <path d="M 93.2,284.9 L 96.4,279.7 L 99.5,275.0 L 102.6,270.6 L 105.8,266.6 L 108.9,262.8 L 112.0,259.3 L 115.2,256.0 L 118.3,252.9 L 121.5,250.0 L 124.6,247.2 L 127.7,244.5 L 130.9,242.0 L 134.0,239.5 L 137.1,237.2 L 140.3,235.0 L 143.4,232.9 L 146.5,230.8 L 149.7,228.8 L 152.8,226.9 L 156.0,225.1 L 159.1,223.3 L 162.2,221.5 L 165.4,219.9 L 168.5,218.2 L 171.6,216.7 L 174.8,215.1 L 177.9,213.6 L 181.1,212.2 L 184.2,210.8 L 187.3,209.4 L 190.5,208.0 L 193.6,206.7 L 196.7,205.4 L 199.9,204.2 L 203.0,203.0 L 206.1,201.8 L 209.3,200.6 L 212.4,199.4 L 215.6,198.3 L 218.7,197.2 L 221.8,196.1 L 225.0,195.1 L 228.1,194.0 L 231.2,193.0 L 234.4,192.0 L 237.5,191.0 L 240.6,190.1 L 243.8,189.1 L 246.9,188.2 L 250.1,187.3 L 253.2,186.4 L 256.3,185.5 L 259.5,184.6 L 262.6,183.8 L 265.7,182.9 L 268.9,182.1 L 272.0,181.3 L 275.1,180.5 L 278.3,179.7 L 281.4,178.9 L 284.6,178.1 L 287.7,177.3 L 290.8,176.6 L 294.0,175.8 L 297.1,175.1 L 300.2,174.4 L 303.4,173.7 L 306.5,173.0 L 309.6,172.3 L 312.8,171.6 L 315.9,170.9 L 319.1,170.3 L 322.2,169.6 L 325.3,168.9 L 328.5,168.3 L 331.6,167.7 L 334.7,167.0 L 337.9,166.4 L 341.0,165.8 L 344.2,165.2 L 347.3,164.6 L 350.4,164.0 L 353.6,163.4 L 356.7,162.8 L 359.8,162.2 L 363.0,161.7 L 366.1,161.1 L 369.2,160.5 L 372.4,160.0 L 375.5,159.4 L 378.7,158.9 L 381.8,158.4 L 384.9,157.8 L 388.1,157.3 L 391.2,156.8 L 394.3,156.3 L 397.5,155.7 L 400.6,155.2 L 403.7,154.7 L 406.9,154.2 L 410.0,153.7 L 413.2,153.3 L 416.3,152.8 L 419.4,152.3 L 422.6,151.8 L 425.7,151.3 L 428.8,150.9 L 432.0,150.4 L 435.1,150.0 L 438.2,149.5 L 441.4,149.0 L 444.5,148.6 L 447.7,148.2 L 450.8,147.7 L 453.9,147.3 L 457.1,146.8 L 460.2,146.4 L 463.3,146.0 L 466.5,145.6 L 469.6,145.1 L 472.7,144.7 L 475.9,144.3 L 479.0,143.9 L 482.2,143.5 L 485.3,143.1 L 488.4,142.7 L 491.6,142.3 L 494.7,141.9 L 497.8,141.5 L 501.0,141.1 L 504.1,140.7 L 507.3,140.3 L 510.4,139.9 L 513.5,139.6 L 516.7,139.2 L 519.8,138.8 L 522.9,138.4 L 526.1,138.1 L 529.2,137.7 L 532.3,137.3 L 535.5,137.0 L 538.6,136.6 L 541.8,136.3 L 544.9,135.9 L 548.0,135.5 L 551.2,135.2 L 554.3,134.8 L 557.4,134.5 L 560.6,134.2 L 563.7,133.8 L 566.8,133.5 L 570.0,133.1 L 573.1,132.8 L 576.3,132.5 L 579.4,132.1 L 582.5,131.8 L 585.7,131.5 L 588.8,131.2 L 591.9,130.8 L 595.1,130.5 L 598.2,130.2 L 601.3,129.9 L 604.5,129.6 L 607.6,129.2 L 610.8,128.9 L 613.9,128.6 L 617.0,128.3 L 620.2,128.0 L 623.3,127.7 L 626.4,127.4 L 629.6,127.1 L 632.7,126.8 L 635.8,126.5 L 639.0,126.2 L 642.1,125.9 L 645.3,125.6 L 648.4,125.3 L 651.5,125.0 L 654.7,124.7 L 657.8,124.4 L 660.9,124.2 L 664.1,123.9 L 667.2,123.6 L 670.4,123.3 L 673.5,123.0 L 676.6,122.8 L 679.8,122.5 L 682.9,122.2 L 686.0,121.9 L 689.2,121.7 L 692.3,121.4 L 695.4,121.1 L 698.6,120.8 L 701.7,120.6 L 704.9,120.3 L 708.0,120.0 L 711.1,119.8 L 714.3,119.5 L 717.4,119.3 L 720.5,119.0 L 723.7,118.7 L 726.8,118.5 L 729.9,118.2 L 733.1,118.0 L 736.2,117.7 L 739.4,117.5 L 742.5,117.2 L 745.6,117.0 L 748.8,116.7 L 751.9,116.5 L 755.0,116.2 L 758.2,116.0 L 761.3,115.7 L 764.4,115.5 L 767.6,115.2 L 770.7,115.0 L 773.9,114.8 L 777.0,114.5 L 780.1,114.3 L 783.3,114.0 L 786.4,113.8 L 789.5,113.6 L 792.7,113.3 L 795.8,113.1 L 798.9,112.9 L 802.1,112.6 L 805.2,112.4 L 808.4,112.2 L 811.5,111.9 L 814.6,111.7 L 817.8,111.5 L 820.9,111.3 L 824.0,111.0 L 827.2,110.8 L 830.3,110.6 L 833.5,110.4 L 836.6,110.1" fill="none" stroke="#0284c7" stroke-width="2" stroke-dasharray="7 5" stroke-linecap="round"/>
  <circle cx="836.6" cy="110.2" r="4" fill="#0284c7"/>
  <text x="836.6" y="102.2" font-size="11" font-weight="700" fill="#0284c7" text-anchor="middle" paint-order="stroke" stroke="#ffffff" stroke-width="3" font-family="-apple-system, BlinkMacSystemFont, sans-serif">average pace ≈ Apr 17, 2027</text>

  <path d="M 93.2,287.5 L 96.4,284.5 L 99.5,282.2 L 102.6,280.4 L 105.8,279.1 L 108.9,278.0 L 112.0,277.2 L 115.2,276.6 L 118.3,276.1 L 121.5,275.7 L 124.6,275.4 L 127.7,275.2 L 130.9,275.0 L 134.0,274.9 L 137.1,274.8 L 140.3,274.7 L 143.4,274.6 L 146.5,274.6 L 149.7,274.6 L 152.8,274.5 L 156.0,274.5 L 159.1,274.5 L 162.2,274.5 L 165.4,274.5 L 168.5,274.5 L 171.6,274.5 L 174.8,274.5 L 177.9,274.5 L 181.1,274.5 L 184.2,274.5 L 187.3,274.4 L 190.5,274.4 L 193.6,274.4 L 196.7,274.4 L 199.9,274.4 L 203.0,274.4 L 206.1,274.4 L 209.3,274.4 L 212.4,274.4 L 215.6,274.4 L 218.7,274.4 L 221.8,274.4 L 225.0,274.4 L 228.1,274.4 L 231.2,274.4 L 234.4,274.4 L 237.5,274.4 L 240.6,274.4 L 243.8,274.4 L 246.9,274.4 L 250.1,274.4 L 253.2,274.4 L 256.3,274.4 L 259.5,274.4 L 262.6,274.4 L 265.7,274.4 L 268.9,274.4 L 272.0,274.4 L 275.1,274.4 L 278.3,274.4 L 281.4,274.4 L 284.6,274.4 L 287.7,274.4 L 290.8,274.4 L 294.0,274.4 L 297.1,274.4 L 300.2,274.4 L 303.4,274.4 L 306.5,274.4 L 309.6,274.4 L 312.8,274.4 L 315.9,274.4 L 319.1,274.4 L 322.2,274.4 L 325.3,274.4 L 328.5,274.4 L 331.6,274.4 L 334.7,274.4 L 337.9,274.4 L 341.0,274.4 L 344.2,274.4 L 347.3,274.4 L 350.4,274.4 L 353.6,274.4 L 356.7,274.4 L 359.8,274.4 L 363.0,274.4 L 366.1,274.4 L 369.2,274.4 L 372.4,274.4 L 375.5,274.4 L 378.7,274.4 L 381.8,274.4 L 384.9,274.4 L 388.1,274.4 L 391.2,274.4 L 394.3,274.4 L 397.5,274.4 L 400.6,274.4 L 403.7,274.4 L 406.9,274.4 L 410.0,274.4 L 413.2,274.4 L 416.3,274.4 L 419.4,274.4 L 422.6,274.4 L 425.7,274.4 L 428.8,274.4 L 432.0,274.4 L 435.1,274.4 L 438.2,274.4 L 441.4,274.4 L 444.5,274.4 L 447.7,274.4 L 450.8,274.4 L 453.9,274.4 L 457.1,274.4 L 460.2,274.4 L 463.3,274.4 L 466.5,274.4 L 469.6,274.4 L 472.7,274.4 L 475.9,274.4 L 479.0,274.4 L 482.2,274.4 L 485.3,274.4 L 488.4,274.4 L 491.6,274.4 L 494.7,274.4 L 497.8,274.4 L 501.0,274.4 L 504.1,274.4 L 507.3,274.4 L 510.4,274.4 L 513.5,274.4 L 516.7,274.4 L 519.8,274.4 L 522.9,274.4 L 526.1,274.4 L 529.2,274.4 L 532.3,274.4 L 535.5,274.4 L 538.6,274.4 L 541.8,274.4 L 544.9,274.4 L 548.0,274.4 L 551.2,274.4 L 554.3,274.4 L 557.4,274.4 L 560.6,274.4 L 563.7,274.4 L 566.8,274.4 L 570.0,274.4 L 573.1,274.4 L 576.3,274.4 L 579.4,274.4 L 582.5,274.4 L 585.7,274.4 L 588.8,274.4 L 591.9,274.4 L 595.1,274.4 L 598.2,274.4 L 601.3,274.4 L 604.5,274.4 L 607.6,274.4 L 610.8,274.4 L 613.9,274.4 L 617.0,274.4 L 620.2,274.4 L 623.3,274.4 L 626.4,274.4 L 629.6,274.4 L 632.7,274.4 L 635.8,274.4 L 639.0,274.4 L 642.1,274.4 L 645.3,274.4 L 648.4,274.4 L 651.5,274.4 L 654.7,274.4 L 657.8,274.4 L 660.9,274.4 L 664.1,274.4 L 667.2,274.4 L 670.4,274.4 L 673.5,274.4 L 676.6,274.4 L 679.8,274.4 L 682.9,274.4 L 686.0,274.4 L 689.2,274.4 L 692.3,274.4 L 695.4,274.4 L 698.6,274.4 L 701.7,274.4 L 704.9,274.4 L 708.0,274.4 L 711.1,274.4 L 714.3,274.4 L 717.4,274.4 L 720.5,274.4 L 723.7,274.4 L 726.8,274.4 L 729.9,274.4 L 733.1,274.4 L 736.2,274.4 L 739.4,274.4 L 742.5,274.4 L 745.6,274.4 L 748.8,274.4 L 751.9,274.4 L 755.0,274.4 L 758.2,274.4 L 761.3,274.4 L 764.4,274.4 L 767.6,274.4 L 770.7,274.4 L 773.9,274.4 L 777.0,274.4 L 780.1,274.4 L 783.3,274.4 L 786.4,274.4 L 789.5,274.4 L 792.7,274.4 L 795.8,274.4 L 798.9,274.4 L 802.1,274.4 L 805.2,274.4 L 808.4,274.4 L 811.5,274.4 L 814.6,274.4 L 817.8,274.4 L 820.9,274.4 L 824.0,274.4 L 827.2,274.4 L 830.3,274.4 L 833.5,274.4 L 836.6,274.4 L 839.7,274.4 L 842.9,274.4 L 846.0,274.4 L 849.1,274.4 L 852.3,274.4 L 855.4,274.4 L 858.5,274.4 L 861.7,274.4 L 864.8,274.4 L 868.0,274.4 L 871.1,274.4 L 874.2,274.4 L 877.4,274.4 L 880.5,274.4 L 883.6,274.4 L 886.8,274.4 L 889.9,274.4 L 893.0,274.4 L 896.2,274.4 L 899.3,274.4 L 902.5,274.4 L 905.6,274.4 L 908.7,274.4 L 911.9,274.4 L 915.0,274.4" fill="none" stroke="#a1a1aa" stroke-width="2" stroke-dasharray="4 4" stroke-linecap="round"/>
  <text x="915" y="268.4" font-size="11" font-weight="700" fill="#a1a1aa" text-anchor="end" paint-order="stroke" stroke="#ffffff" stroke-width="3" font-family="-apple-system, BlinkMacSystemFont, sans-serif">slowing pace: plateaus ~200k★ — no catch-up</text>

  <!-- X-Axis Label -->
  <text x="480.0" y="492" font-size="11.5" font-weight="700" fill="#71717a" text-anchor="middle" font-family="-apple-system, BlinkMacSystemFont, sans-serif">Weeks since Day 1 inception (each vertical line = 1 week)</text>
</svg>