<svg xmlns="http://www.w3.org/2000/svg" viewBox="0 0 960 500" width="100%" height="100%" style="background:#ffffff;border:1px solid #e4e4e7;border-radius:14px;">
  <!-- Header / Scoreboard -->
  <g transform="translate(65, 28)">
    <text x="0" y="4" font-size="16" font-weight="900" fill="#09090b" font-family="-apple-system, BlinkMacSystemFont, sans-serif">🐋 vs 🦞</text>
    <text x="75" y="4" font-size="12" fill="#71717a" font-family="-apple-system, BlinkMacSystemFont, sans-serif">📈 The battle is on · Bring the 🍿</text>
    
    <g transform="translate(320, 0)">
      <circle cx="6" cy="0" r="4.5" fill="#0284c7"/>
      <text x="16" y="4" font-size="12" font-weight="700" fill="#0284c7" font-family="-apple-system, BlinkMacSystemFont, sans-serif">🐋 deepseek-ai/deepseek-harness</text>
    </g>

    <g transform="translate(600, 0)">
      <circle cx="6" cy="0" r="4.5" fill="#e11d48"/>
      <text x="16" y="4" font-size="12" font-weight="700" fill="#e11d48" font-family="-apple-system, BlinkMacSystemFont, sans-serif">🦞 openclaw/openclaw</text>
    </g>
  </g>

  <!-- Grid Lines -->
  <line x1="65" y1="450.0" x2="915" y2="450.0" stroke="#f4f4f5" stroke-width="1"/><text x="55" y="454.0" font-size="11.5" fill="#71717a" text-anchor="end" font-family="-apple-system, BlinkMacSystemFont, sans-serif">0</text><line x1="65" y1="371.0" x2="915" y2="371.0" stroke="#f4f4f5" stroke-width="1"/><text x="55" y="375.0" font-size="11.5" fill="#71717a" text-anchor="end" font-family="-apple-system, BlinkMacSystemFont, sans-serif">90k</text><line x1="65" y1="292.0" x2="915" y2="292.0" stroke="#f4f4f5" stroke-width="1"/><text x="55" y="296.0" font-size="11.5" fill="#71717a" text-anchor="end" font-family="-apple-system, BlinkMacSystemFont, sans-serif">180k</text><line x1="65" y1="213.0" x2="915" y2="213.0" stroke="#f4f4f5" stroke-width="1"/><text x="55" y="217.0" font-size="11.5" fill="#71717a" text-anchor="end" font-family="-apple-system, BlinkMacSystemFont, sans-serif">270k</text><line x1="65" y1="134.0" x2="915" y2="134.0" stroke="#f4f4f5" stroke-width="1"/><text x="55" y="138.0" font-size="11.5" fill="#71717a" text-anchor="end" font-family="-apple-system, BlinkMacSystemFont, sans-serif">360k</text><line x1="65" y1="55.0" x2="915" y2="55.0" stroke="#f4f4f5" stroke-width="1"/><text x="55" y="59.0" font-size="11.5" fill="#71717a" text-anchor="end" font-family="-apple-system, BlinkMacSystemFont, sans-serif">450k</text>
  <line x1="83.7" y1="55" x2="83.7" y2="450" stroke="#f4f4f5" stroke-width="1"/><text x="83.7" y="466" font-size="11" fill="#71717a" text-anchor="middle" font-family="-apple-system, BlinkMacSystemFont, sans-serif">W1</text><line x1="105.5" y1="55" x2="105.5" y2="450" stroke="#f4f4f5" stroke-width="1"/><text x="105.5" y="466" font-size="11" fill="#71717a" text-anchor="middle" font-family="-apple-system, BlinkMacSystemFont, sans-serif">W2</text><line x1="127.3" y1="55" x2="127.3" y2="450" stroke="#f4f4f5" stroke-width="1"/><line x1="149.1" y1="55" x2="149.1" y2="450" stroke="#f4f4f5" stroke-width="1"/><text x="149.1" y="466" font-size="11" fill="#71717a" text-anchor="middle" font-family="-apple-system, BlinkMacSystemFont, sans-serif">W4</text><line x1="170.9" y1="55" x2="170.9" y2="450" stroke="#f4f4f5" stroke-width="1"/><line x1="192.7" y1="55" x2="192.7" y2="450" stroke="#f4f4f5" stroke-width="1"/><text x="192.7" y="466" font-size="11" fill="#71717a" text-anchor="middle" font-family="-apple-system, BlinkMacSystemFont, sans-serif">W6</text><line x1="214.5" y1="55" x2="214.5" y2="450" stroke="#f4f4f5" stroke-width="1"/><line x1="236.2" y1="55" x2="236.2" y2="450" stroke="#f4f4f5" stroke-width="1"/><text x="236.2" y="466" font-size="11" fill="#71717a" text-anchor="middle" font-family="-apple-system, BlinkMacSystemFont, sans-serif">W8</text><line x1="258.0" y1="55" x2="258.0" y2="450" stroke="#f4f4f5" stroke-width="1"/><line x1="279.8" y1="55" x2="279.8" y2="450" stroke="#f4f4f5" stroke-width="1"/><text x="279.8" y="466" font-size="11" fill="#71717a" text-anchor="middle" font-family="-apple-system, BlinkMacSystemFont, sans-serif">W10</text><line x1="301.6" y1="55" x2="301.6" y2="450" stroke="#f4f4f5" stroke-width="1"/><line x1="323.4" y1="55" x2="323.4" y2="450" stroke="#f4f4f5" stroke-width="1"/><text x="323.4" y="466" font-size="11" fill="#71717a" text-anchor="middle" font-family="-apple-system, BlinkMacSystemFont, sans-serif">W12</text><line x1="345.2" y1="55" x2="345.2" y2="450" stroke="#f4f4f5" stroke-width="1"/><line x1="367.0" y1="55" x2="367.0" y2="450" stroke="#f4f4f5" stroke-width="1"/><text x="367.0" y="466" font-size="11" fill="#71717a" text-anchor="middle" font-family="-apple-system, BlinkMacSystemFont, sans-serif">W14</text><line x1="388.8" y1="55" x2="388.8" y2="450" stroke="#f4f4f5" stroke-width="1"/><line x1="410.6" y1="55" x2="410.6" y2="450" stroke="#f4f4f5" stroke-width="1"/><text x="410.6" y="466" font-size="11" fill="#71717a" text-anchor="middle" font-family="-apple-system, BlinkMacSystemFont, sans-serif">W16</text><line x1="432.4" y1="55" x2="432.4" y2="450" stroke="#f4f4f5" stroke-width="1"/><line x1="454.2" y1="55" x2="454.2" y2="450" stroke="#f4f4f5" stroke-width="1"/><text x="454.2" y="466" font-size="11" fill="#71717a" text-anchor="middle" font-family="-apple-system, BlinkMacSystemFont, sans-serif">W18</text><line x1="476.0" y1="55" x2="476.0" y2="450" stroke="#f4f4f5" stroke-width="1"/><line x1="497.8" y1="55" x2="497.8" y2="450" stroke="#f4f4f5" stroke-width="1"/><text x="497.8" y="466" font-size="11" fill="#71717a" text-anchor="middle" font-family="-apple-system, BlinkMacSystemFont, sans-serif">W20</text><line x1="519.6" y1="55" x2="519.6" y2="450" stroke="#f4f4f5" stroke-width="1"/><line x1="541.4" y1="55" x2="541.4" y2="450" stroke="#f4f4f5" stroke-width="1"/><line x1="563.2" y1="55" x2="563.2" y2="450" stroke="#f4f4f5" stroke-width="1"/><line x1="585.0" y1="55" x2="585.0" y2="450" stroke="#f4f4f5" stroke-width="1"/><text x="585.0" y="466" font-size="11" fill="#71717a" text-anchor="middle" font-family="-apple-system, BlinkMacSystemFont, sans-serif">W24</text><line x1="606.8" y1="55" x2="606.8" y2="450" stroke="#f4f4f5" stroke-width="1"/><line x1="628.6" y1="55" x2="628.6" y2="450" stroke="#f4f4f5" stroke-width="1"/><line x1="650.3" y1="55" x2="650.3" y2="450" stroke="#f4f4f5" stroke-width="1"/><line x1="672.1" y1="55" x2="672.1" y2="450" stroke="#f4f4f5" stroke-width="1"/><text x="672.1" y="466" font-size="11" fill="#71717a" text-anchor="middle" font-family="-apple-system, BlinkMacSystemFont, sans-serif">W28</text><line x1="693.9" y1="55" x2="693.9" y2="450" stroke="#f4f4f5" stroke-width="1"/><line x1="715.7" y1="55" x2="715.7" y2="450" stroke="#f4f4f5" stroke-width="1"/><line x1="737.5" y1="55" x2="737.5" y2="450" stroke="#f4f4f5" stroke-width="1"/><line x1="759.3" y1="55" x2="759.3" y2="450" stroke="#f4f4f5" stroke-width="1"/><text x="759.3" y="466" font-size="11" fill="#71717a" text-anchor="middle" font-family="-apple-system, BlinkMacSystemFont, sans-serif">W32</text><line x1="781.1" y1="55" x2="781.1" y2="450" stroke="#f4f4f5" stroke-width="1"/><line x1="802.9" y1="55" x2="802.9" y2="450" stroke="#f4f4f5" stroke-width="1"/><line x1="824.7" y1="55" x2="824.7" y2="450" stroke="#f4f4f5" stroke-width="1"/><line x1="846.5" y1="55" x2="846.5" y2="450" stroke="#f4f4f5" stroke-width="1"/><text x="846.5" y="466" font-size="11" fill="#71717a" text-anchor="middle" font-family="-apple-system, BlinkMacSystemFont, sans-serif">W36</text><line x1="868.3" y1="55" x2="868.3" y2="450" stroke="#f4f4f5" stroke-width="1"/><line x1="890.1" y1="55" x2="890.1" y2="450" stroke="#f4f4f5" stroke-width="1"/><line x1="911.9" y1="55" x2="911.9" y2="450" stroke="#f4f4f5" stroke-width="1"/><text x="911.9" y="466" font-size="11" fill="#71717a" text-anchor="middle" font-family="-apple-system, BlinkMacSystemFont, sans-serif">W39</text><text x="65.0" y="466" font-size="11" fill="#71717a" text-anchor="middle" font-family="-apple-system, BlinkMacSystemFont, sans-serif">Day 1</text>

  <!-- Trajectory Lines -->
  <path d="M 65.0,450.0 L 68.1,450.0 L 71.2,449.9 L 74.3,449.9 L 77.5,449.7 L 80.6,449.4 L 83.7,449.2 L 86.8,449.0 L 89.9,448.7 L 93.0,448.5 L 96.1,448.3 L 99.2,448.0 L 102.4,447.8 L 105.5,447.6 L 108.6,447.3 L 111.7,447.1 L 114.8,446.8 L 117.9,446.6 L 121.0,446.4 L 124.2,446.1 L 127.3,445.9 L 130.4,445.7 L 133.5,445.4 L 136.6,445.2 L 139.7,444.9 L 142.8,444.7 L 146.0,444.5 L 149.1,444.2 L 152.2,444.0 L 155.3,443.8 L 158.4,443.5 L 161.5,443.3 L 164.6,443.0 L 167.7,442.8 L 170.9,442.6 L 174.0,442.3 L 177.1,442.1 L 180.2,441.9 L 183.3,441.6 L 186.4,441.4 L 189.5,441.2 L 192.7,440.9 L 195.8,440.7 L 198.9,440.4 L 202.0,440.2 L 205.1,440.0 L 208.2,439.7 L 211.3,439.5 L 214.5,439.3 L 217.6,439.0 L 220.7,438.8 L 223.8,438.5 L 226.9,438.3 L 230.0,438.1 L 233.1,437.8 L 236.2,430.5 L 239.4,423.5 L 242.5,416.5 L 245.6,409.4 L 248.7,402.4 L 251.8,395.4 L 254.9,388.4 L 258.0,381.4 L 261.2,374.3 L 264.3,367.3 L 267.4,360.3 L 270.5,353.3 L 273.6,346.2 L 276.7,339.2 L 279.8,332.2 L 282.9,325.2 L 286.1,318.2 L 289.2,311.1 L 292.3,304.1 L 295.4,300.8 L 298.5,297.3 L 301.6,293.8 L 304.7,290.2 L 307.9,286.7 L 311.0,283.2 L 314.1,279.7 L 317.2,276.2 L 320.3,272.7 L 323.4,269.2 L 326.5,265.7 L 329.7,262.2 L 332.8,258.6 L 335.9,255.1 L 339.0,251.6 L 342.1,248.1 L 345.2,244.6 L 348.3,241.1 L 351.4,237.6 L 354.6,234.1 L 357.7,230.6 L 360.8,227.0 L 363.9,223.5 L 367.0,220.0 L 370.1,216.5 L 373.2,213.0 L 376.4,211.5 L 379.5,210.9 L 382.6,210.3 L 385.7,209.7 L 388.8,209.1 L 391.9,208.5 L 395.0,207.9 L 398.2,207.2 L 401.3,206.6 L 404.4,206.0 L 407.5,205.4 L 410.6,204.8 L 413.7,204.2 L 416.8,203.6 L 419.9,203.0 L 423.1,202.4 L 426.2,201.7 L 429.3,201.1 L 432.4,200.5 L 435.5,199.9 L 438.6,199.3 L 441.7,198.7 L 444.9,198.1 L 448.0,197.5 L 451.1,196.9 L 454.2,196.3 L 457.3,195.6 L 460.4,195.0 L 463.5,194.4 L 466.6,193.8 L 469.8,193.2 L 472.9,192.6 L 476.0,192.0 L 479.1,191.4 L 482.2,190.8 L 485.3,190.2 L 488.4,189.5 L 491.6,188.9 L 494.7,188.3 L 497.8,187.7 L 500.9,187.1 L 504.0,186.5 L 507.1,185.9 L 510.2,185.3 L 513.4,184.7 L 516.5,184.0 L 519.6,183.4 L 522.7,182.8 L 525.8,182.2 L 528.9,181.6 L 532.0,181.0 L 535.1,180.4 L 538.3,179.8 L 541.4,179.2 L 544.5,178.6 L 547.6,177.9 L 550.7,177.3 L 553.8,176.7 L 556.9,176.1 L 560.1,175.5 L 563.2,174.9 L 566.3,174.3 L 569.4,173.7 L 572.5,173.1 L 575.6,172.5 L 578.7,171.8 L 581.8,171.2 L 585.0,170.6 L 588.1,170.0 L 591.2,169.4 L 594.3,168.8 L 597.4,168.2 L 600.5,167.6 L 603.6,167.0 L 606.8,166.3 L 609.9,165.7 L 613.0,165.1 L 616.1,164.5 L 619.2,163.9 L 622.3,163.3 L 625.4,162.7 L 628.6,162.1 L 631.7,161.5 L 634.8,160.9 L 637.9,160.2 L 641.0,159.6 L 644.1,159.0 L 647.2,158.4 L 650.3,157.8 L 653.5,157.2 L 656.6,156.6 L 659.7,156.0 L 662.8,155.4 L 665.9,154.8 L 669.0,154.1 L 672.1,153.5 L 675.3,152.9 L 678.4,152.3 L 681.5,151.7 L 684.6,151.1 L 687.7,150.5 L 690.8,149.9 L 693.9,149.3 L 697.1,148.6 L 700.2,148.0 L 703.3,147.4 L 706.4,146.8 L 709.5,146.2 L 712.6,145.6 L 715.7,145.0 L 718.8,144.4 L 722.0,143.8 L 725.1,143.2 L 728.2,142.5 L 731.3,141.9 L 734.4,141.3 L 737.5,140.7 L 740.6,140.1 L 743.8,139.5 L 746.9,138.9 L 750.0,138.3 L 753.1,137.7 L 756.2,137.1 L 759.3,136.4 L 762.4,135.8 L 765.5,135.2 L 768.7,134.6 L 771.8,134.0 L 774.9,133.4 L 778.0,132.8 L 781.1,132.2 L 784.2,131.6 L 787.3,130.9 L 790.5,130.3 L 793.6,129.7 L 796.7,129.1 L 799.8,128.5 L 802.9,127.9 L 806.0,127.3 L 809.1,126.7 L 812.3,126.1 L 815.4,125.5 L 818.5,124.8 L 821.6,124.2 L 824.7,123.6 L 827.8,123.0 L 830.9,122.4 L 834.0,121.8 L 837.2,121.2 L 840.3,120.6 L 843.4,120.0 L 846.5,119.4 L 849.6,118.7 L 852.7,118.1 L 855.8,117.5 L 859.0,116.9 L 862.1,116.3 L 865.2,115.7 L 868.3,115.1 L 871.4,114.5 L 874.5,113.9 L 877.6,113.3 L 880.8,112.6 L 883.9,112.0 L 887.0,111.4 L 890.1,110.8 L 893.2,110.7 L 896.3,110.6 L 899.4,110.5 L 902.5,110.4 L 905.7,110.3 L 908.8,110.2 L 911.9,110.1 L 915.0,110.1" fill="none" stroke="#e11d48" stroke-width="3" stroke-linecap="round" stroke-linejoin="round"/>
  <path d="M 65.0,428.8 L 68.1,375.1 L 71.2,351.3 L 74.3,335.0 L 77.5,318.6 L 80.6,309.4 L 83.7,303.4 L 86.8,297.1 L 89.9,291.0 L 93.0,287.6 L 96.1,285.1 L 99.2,283.7" fill="none" stroke="#0284c7" stroke-width="3.5" stroke-linecap="round" stroke-linejoin="round"/>

  <!-- Live Mascot Emojis on Tips -->
  <text x="105.2" y="289.7" font-size="20">🐋</text>
  <text x="895.0" y="102.1" font-size="20">🦞</text>

  <!-- Whale reference line (today's level) -->
  <line x1="65" y1="283.7" x2="915" y2="283.7" stroke="#a1a1aa" stroke-width="1.5" stroke-dasharray="4 4"/>
  <text x="915" y="277.7" font-size="11" fill="#71717a" text-anchor="end" font-family="-apple-system, BlinkMacSystemFont, sans-serif">🐋 today · 189,496★</text>

  <!-- Projection fan: current / average / slowing pace -->
  <path d="M 99.2,283.7 L 102.4,281.7 L 105.5,279.7 L 108.6,277.7 L 111.7,275.7 L 114.8,273.7 L 117.9,271.8 L 121.0,269.8 L 124.2,267.8 L 127.3,265.8 L 130.4,263.8 L 133.5,261.8 L 136.6,259.9 L 139.7,257.9 L 142.8,255.9 L 146.0,253.9 L 149.1,251.9 L 152.2,249.9 L 155.3,248.0 L 158.4,246.0 L 161.5,244.0 L 164.6,242.0 L 167.7,240.0 L 170.9,238.0 L 174.0,236.1 L 177.1,234.1 L 180.2,232.1 L 183.3,230.1 L 186.4,228.1 L 189.5,226.1 L 192.7,224.2 L 195.8,222.2 L 198.9,220.2 L 202.0,218.2 L 205.1,216.2 L 208.2,214.2 L 211.3,212.3 L 214.5,210.3 L 217.6,208.3 L 220.7,206.3 L 223.8,204.3 L 226.9,202.3 L 230.0,200.4 L 233.1,198.4 L 236.2,196.4 L 239.4,194.4 L 242.5,192.4 L 245.6,190.4 L 248.7,188.5 L 251.8,186.5 L 254.9,184.5 L 258.0,182.5 L 261.2,180.5 L 264.3,178.5 L 267.4,176.6 L 270.5,174.6 L 273.6,172.6 L 276.7,170.6 L 279.8,168.6 L 282.9,166.6 L 286.1,164.7 L 289.2,162.7 L 292.3,160.7 L 295.4,158.7 L 298.5,156.7 L 301.6,154.7 L 304.7,152.8 L 307.9,150.8 L 311.0,148.8 L 314.1,146.8 L 317.2,144.8 L 320.3,142.8 L 323.4,140.9 L 326.5,138.9 L 329.7,136.9 L 332.8,134.9 L 335.9,132.9 L 339.0,130.9 L 342.1,129.0 L 345.2,127.0 L 348.3,125.0 L 351.4,123.0 L 354.6,121.0 L 357.7,119.0 L 360.8,117.1 L 363.9,115.1 L 367.0,113.1 L 370.1,111.1 L 373.2,109.1" fill="none" stroke="#0ea5e9" stroke-width="2" stroke-dasharray="2 3" stroke-linecap="round"/>
  <circle cx="373.2" cy="110.1" r="4" fill="#0ea5e9"/>
  <text x="373.2" y="102.1" font-size="11" font-weight="700" fill="#0ea5e9" text-anchor="middle" paint-order="stroke" stroke="#ffffff" stroke-width="3" font-family="-apple-system, BlinkMacSystemFont, sans-serif">current pace ≈ Nov 21, 2026</text>

  <path d="M 99.2,277.7 L 102.4,273.5 L 105.5,269.6 L 108.6,266.0 L 111.7,262.7 L 114.8,259.5 L 117.9,256.5 L 121.0,253.7 L 124.2,251.0 L 127.3,248.5 L 130.4,246.1 L 133.5,243.7 L 136.6,241.5 L 139.7,239.4 L 142.8,237.4 L 146.0,235.4 L 149.1,233.5 L 152.2,231.7 L 155.3,229.9 L 158.4,228.2 L 161.5,226.5 L 164.6,224.9 L 167.7,223.4 L 170.9,221.9 L 174.0,220.4 L 177.1,219.0 L 180.2,217.6 L 183.3,216.2 L 186.4,214.9 L 189.5,213.6 L 192.7,212.4 L 195.8,211.1 L 198.9,209.9 L 202.0,208.8 L 205.1,207.6 L 208.2,206.5 L 211.3,205.4 L 214.5,204.3 L 217.6,203.3 L 220.7,202.2 L 223.8,201.2 L 226.9,200.2 L 230.0,199.3 L 233.1,198.3 L 236.2,197.4 L 239.4,196.4 L 242.5,195.5 L 245.6,194.6 L 248.7,193.8 L 251.8,192.9 L 254.9,192.1 L 258.0,191.2 L 261.2,190.4 L 264.3,189.6 L 267.4,188.8 L 270.5,188.0 L 273.6,187.2 L 276.7,186.5 L 279.8,185.7 L 282.9,185.0 L 286.1,184.3 L 289.2,183.5 L 292.3,182.8 L 295.4,182.1 L 298.5,181.5 L 301.6,180.8 L 304.7,180.1 L 307.9,179.4 L 311.0,178.8 L 314.1,178.1 L 317.2,177.5 L 320.3,176.9 L 323.4,176.2 L 326.5,175.6 L 329.7,175.0 L 332.8,174.4 L 335.9,173.8 L 339.0,173.2 L 342.1,172.6 L 345.2,172.1 L 348.3,171.5 L 351.4,170.9 L 354.6,170.4 L 357.7,169.8 L 360.8,169.3 L 363.9,168.7 L 367.0,168.2 L 370.1,167.7 L 373.2,167.1 L 376.4,166.6 L 379.5,166.1 L 382.6,165.6 L 385.7,165.1 L 388.8,164.6 L 391.9,164.1 L 395.0,163.6 L 398.2,163.1 L 401.3,162.7 L 404.4,162.2 L 407.5,161.7 L 410.6,161.2 L 413.7,160.8 L 416.8,160.3 L 419.9,159.9 L 423.1,159.4 L 426.2,159.0 L 429.3,158.5 L 432.4,158.1 L 435.5,157.6 L 438.6,157.2 L 441.7,156.8 L 444.9,156.4 L 448.0,155.9 L 451.1,155.5 L 454.2,155.1 L 457.3,154.7 L 460.4,154.3 L 463.5,153.9 L 466.6,153.5 L 469.8,153.1 L 472.9,152.7 L 476.0,152.3 L 479.1,151.9 L 482.2,151.5 L 485.3,151.1 L 488.4,150.7 L 491.6,150.4 L 494.7,150.0 L 497.8,149.6 L 500.9,149.2 L 504.0,148.9 L 507.1,148.5 L 510.2,148.1 L 513.4,147.8 L 516.5,147.4 L 519.6,147.1 L 522.7,146.7 L 525.8,146.4 L 528.9,146.0 L 532.0,145.7 L 535.1,145.3 L 538.3,145.0 L 541.4,144.6 L 544.5,144.3 L 547.6,144.0 L 550.7,143.6 L 553.8,143.3 L 556.9,143.0 L 560.1,142.6 L 563.2,142.3 L 566.3,142.0 L 569.4,141.7 L 572.5,141.4 L 575.6,141.0 L 578.7,140.7 L 581.8,140.4 L 585.0,140.1 L 588.1,139.8 L 591.2,139.5 L 594.3,139.2 L 597.4,138.9 L 600.5,138.6 L 603.6,138.3 L 606.8,138.0 L 609.9,137.7 L 613.0,137.4 L 616.1,137.1 L 619.2,136.8 L 622.3,136.5 L 625.4,136.2 L 628.6,135.9 L 631.7,135.6 L 634.8,135.4 L 637.9,135.1 L 641.0,134.8 L 644.1,134.5 L 647.2,134.2 L 650.3,134.0 L 653.5,133.7 L 656.6,133.4 L 659.7,133.1 L 662.8,132.9 L 665.9,132.6 L 669.0,132.3 L 672.1,132.1 L 675.3,131.8 L 678.4,131.5 L 681.5,131.3 L 684.6,131.0 L 687.7,130.8 L 690.8,130.5 L 693.9,130.2 L 697.1,130.0 L 700.2,129.7 L 703.3,129.5 L 706.4,129.2 L 709.5,129.0 L 712.6,128.7 L 715.7,128.5 L 718.8,128.2 L 722.0,128.0 L 725.1,127.7 L 728.2,127.5 L 731.3,127.2 L 734.4,127.0 L 737.5,126.8 L 740.6,126.5 L 743.8,126.3 L 746.9,126.0 L 750.0,125.8 L 753.1,125.6 L 756.2,125.3 L 759.3,125.1 L 762.4,124.9 L 765.5,124.6 L 768.7,124.4 L 771.8,124.2 L 774.9,124.0 L 778.0,123.7 L 781.1,123.5 L 784.2,123.3 L 787.3,123.1 L 790.5,122.8 L 793.6,122.6 L 796.7,122.4 L 799.8,122.2 L 802.9,122.0 L 806.0,121.7 L 809.1,121.5 L 812.3,121.3 L 815.4,121.1 L 818.5,120.9 L 821.6,120.7 L 824.7,120.4 L 827.8,120.2 L 830.9,120.0 L 834.0,119.8 L 837.2,119.6 L 840.3,119.4 L 843.4,119.2 L 846.5,119.0 L 849.6,118.8 L 852.7,118.6 L 855.8,118.4 L 859.0,118.2 L 862.1,117.9 L 865.2,117.7 L 868.3,117.5 L 871.4,117.3 L 874.5,117.1 L 877.6,116.9 L 880.8,116.7 L 883.9,116.5 L 887.0,116.3 L 890.1,116.2 L 893.2,116.0 L 896.3,115.8 L 899.4,115.6 L 902.5,115.4 L 905.7,115.2 L 908.8,115.0 L 911.9,114.8 L 915.0,114.6 L 918.1,114.4 L 921.2,114.2 L 924.3,114.0 L 927.5,113.9 L 930.6,113.7 L 933.7,113.5 L 936.8,113.3 L 939.9,113.1 L 943.0,112.9 L 946.1,112.7 L 949.2,112.6 L 952.4,112.4 L 955.5,112.2 L 958.6,112.0 L 961.7,111.8 L 964.8,111.7 L 967.9,111.5 L 971.0,111.3 L 974.2,111.1 L 977.3,110.9 L 980.4,110.8 L 983.5,110.6 L 986.6,110.4 L 989.7,110.2 L 992.8,110.1 L 996.0,109.9" fill="none" stroke="#0284c7" stroke-width="2" stroke-dasharray="7 5" stroke-linecap="round"/>
  <circle cx="996.0" cy="110.1" r="4" fill="#0284c7"/>
  <text x="996.0" y="102.1" font-size="11" font-weight="700" fill="#0284c7" text-anchor="middle" paint-order="stroke" stroke="#ffffff" stroke-width="3" font-family="-apple-system, BlinkMacSystemFont, sans-serif">average pace ≈ Jun 8, 2027</text>

  <path d="M 99.2,282.2 L 102.4,280.4 L 105.5,279.1 L 108.6,278.0 L 111.7,277.2 L 114.8,276.6 L 117.9,276.1 L 121.0,275.7 L 124.2,275.4 L 127.3,275.2 L 130.4,275.0 L 133.5,274.9 L 136.6,274.8 L 139.7,274.7 L 142.8,274.6 L 146.0,274.6 L 149.1,274.6 L 152.2,274.5 L 155.3,274.5 L 158.4,274.5 L 161.5,274.5 L 164.6,274.5 L 167.7,274.5 L 170.9,274.5 L 174.0,274.5 L 177.1,274.5 L 180.2,274.5 L 183.3,274.5 L 186.4,274.4 L 189.5,274.4 L 192.7,274.4 L 195.8,274.4 L 198.9,274.4 L 202.0,274.4 L 205.1,274.4 L 208.2,274.4 L 211.3,274.4 L 214.5,274.4 L 217.6,274.4 L 220.7,274.4 L 223.8,274.4 L 226.9,274.4 L 230.0,274.4 L 233.1,274.4 L 236.2,274.4 L 239.4,274.4 L 242.5,274.4 L 245.6,274.4 L 248.7,274.4 L 251.8,274.4 L 254.9,274.4 L 258.0,274.4 L 261.2,274.4 L 264.3,274.4 L 267.4,274.4 L 270.5,274.4 L 273.6,274.4 L 276.7,274.4 L 279.8,274.4 L 282.9,274.4 L 286.1,274.4 L 289.2,274.4 L 292.3,274.4 L 295.4,274.4 L 298.5,274.4 L 301.6,274.4 L 304.7,274.4 L 307.9,274.4 L 311.0,274.4 L 314.1,274.4 L 317.2,274.4 L 320.3,274.4 L 323.4,274.4 L 326.5,274.4 L 329.7,274.4 L 332.8,274.4 L 335.9,274.4 L 339.0,274.4 L 342.1,274.4 L 345.2,274.4 L 348.3,274.4 L 351.4,274.4 L 354.6,274.4 L 357.7,274.4 L 360.8,274.4 L 363.9,274.4 L 367.0,274.4 L 370.1,274.4 L 373.2,274.4 L 376.4,274.4 L 379.5,274.4 L 382.6,274.4 L 385.7,274.4 L 388.8,274.4 L 391.9,274.4 L 395.0,274.4 L 398.2,274.4 L 401.3,274.4 L 404.4,274.4 L 407.5,274.4 L 410.6,274.4 L 413.7,274.4 L 416.8,274.4 L 419.9,274.4 L 423.1,274.4 L 426.2,274.4 L 429.3,274.4 L 432.4,274.4 L 435.5,274.4 L 438.6,274.4 L 441.7,274.4 L 444.9,274.4 L 448.0,274.4 L 451.1,274.4 L 454.2,274.4 L 457.3,274.4 L 460.4,274.4 L 463.5,274.4 L 466.6,274.4 L 469.8,274.4 L 472.9,274.4 L 476.0,274.4 L 479.1,274.4 L 482.2,274.4 L 485.3,274.4 L 488.4,274.4 L 491.6,274.4 L 494.7,274.4 L 497.8,274.4 L 500.9,274.4 L 504.0,274.4 L 507.1,274.4 L 510.2,274.4 L 513.4,274.4 L 516.5,274.4 L 519.6,274.4 L 522.7,274.4 L 525.8,274.4 L 528.9,274.4 L 532.0,274.4 L 535.1,274.4 L 538.3,274.4 L 541.4,274.4 L 544.5,274.4 L 547.6,274.4 L 550.7,274.4 L 553.8,274.4 L 556.9,274.4 L 560.1,274.4 L 563.2,274.4 L 566.3,274.4 L 569.4,274.4 L 572.5,274.4 L 575.6,274.4 L 578.7,274.4 L 581.8,274.4 L 585.0,274.4 L 588.1,274.4 L 591.2,274.4 L 594.3,274.4 L 597.4,274.4 L 600.5,274.4 L 603.6,274.4 L 606.8,274.4 L 609.9,274.4 L 613.0,274.4 L 616.1,274.4 L 619.2,274.4 L 622.3,274.4 L 625.4,274.4 L 628.6,274.4 L 631.7,274.4 L 634.8,274.4 L 637.9,274.4 L 641.0,274.4 L 644.1,274.4 L 647.2,274.4 L 650.3,274.4 L 653.5,274.4 L 656.6,274.4 L 659.7,274.4 L 662.8,274.4 L 665.9,274.4 L 669.0,274.4 L 672.1,274.4 L 675.3,274.4 L 678.4,274.4 L 681.5,274.4 L 684.6,274.4 L 687.7,274.4 L 690.8,274.4 L 693.9,274.4 L 697.1,274.4 L 700.2,274.4 L 703.3,274.4 L 706.4,274.4 L 709.5,274.4 L 712.6,274.4 L 715.7,274.4 L 718.8,274.4 L 722.0,274.4 L 725.1,274.4 L 728.2,274.4 L 731.3,274.4 L 734.4,274.4 L 737.5,274.4 L 740.6,274.4 L 743.8,274.4 L 746.9,274.4 L 750.0,274.4 L 753.1,274.4 L 756.2,274.4 L 759.3,274.4 L 762.4,274.4 L 765.5,274.4 L 768.7,274.4 L 771.8,274.4 L 774.9,274.4 L 778.0,274.4 L 781.1,274.4 L 784.2,274.4 L 787.3,274.4 L 790.5,274.4 L 793.6,274.4 L 796.7,274.4 L 799.8,274.4 L 802.9,274.4 L 806.0,274.4 L 809.1,274.4 L 812.3,274.4 L 815.4,274.4 L 818.5,274.4 L 821.6,274.4 L 824.7,274.4 L 827.8,274.4 L 830.9,274.4 L 834.0,274.4 L 837.2,274.4 L 840.3,274.4 L 843.4,274.4 L 846.5,274.4 L 849.6,274.4 L 852.7,274.4 L 855.8,274.4 L 859.0,274.4 L 862.1,274.4 L 865.2,274.4 L 868.3,274.4 L 871.4,274.4 L 874.5,274.4 L 877.6,274.4 L 880.8,274.4 L 883.9,274.4 L 887.0,274.4 L 890.1,274.4 L 893.2,274.4 L 896.3,274.4 L 899.4,274.4 L 902.5,274.4 L 905.7,274.4 L 908.8,274.4 L 911.9,274.4 L 915.0,274.4" fill="none" stroke="#a1a1aa" stroke-width="2" stroke-dasharray="4 4" stroke-linecap="round"/>
  <text x="915" y="268.4" font-size="11" font-weight="700" fill="#a1a1aa" text-anchor="end" paint-order="stroke" stroke="#ffffff" stroke-width="3" font-family="-apple-system, BlinkMacSystemFont, sans-serif">slowing pace: plateaus ~200k★ — no catch-up</text>

  <!-- X-Axis Label -->
  <text x="480.0" y="492" font-size="11.5" font-weight="700" fill="#71717a" text-anchor="middle" font-family="-apple-system, BlinkMacSystemFont, sans-serif">Weeks since Day 1 inception (each vertical line = 1 week)</text>
</svg>