<svg xmlns="http://www.w3.org/2000/svg" viewBox="0 0 960 500" width="100%" height="100%" style="background:#ffffff;border:1px solid #e4e4e7;border-radius:14px;">
  <!-- Header / Scoreboard -->
  <g transform="translate(65, 28)">
    <text x="0" y="4" font-size="16" font-weight="900" fill="#09090b" font-family="-apple-system, BlinkMacSystemFont, sans-serif">🐋 vs 🦞</text>
    <text x="75" y="4" font-size="12" fill="#71717a" font-family="-apple-system, BlinkMacSystemFont, sans-serif">📈 The battle is on · Bring the 🍿</text>
    
    <g transform="translate(320, 0)">
      <circle cx="6" cy="0" r="4.5" fill="#0284c7"/>
      <text x="16" y="4" font-size="12" font-weight="700" fill="#0284c7" font-family="-apple-system, BlinkMacSystemFont, sans-serif">🐋 deepseek-ai/deepseek-harness</text>
    </g>

    <g transform="translate(600, 0)">
      <circle cx="6" cy="0" r="4.5" fill="#e11d48"/>
      <text x="16" y="4" font-size="12" font-weight="700" fill="#e11d48" font-family="-apple-system, BlinkMacSystemFont, sans-serif">🦞 openclaw/openclaw</text>
    </g>
  </g>

  <!-- Grid Lines -->
  <line x1="65" y1="450.0" x2="915" y2="450.0" stroke="#f4f4f5" stroke-width="1"/><text x="55" y="454.0" font-size="11.5" fill="#71717a" text-anchor="end" font-family="-apple-system, BlinkMacSystemFont, sans-serif">0</text><line x1="65" y1="371.0" x2="915" y2="371.0" stroke="#f4f4f5" stroke-width="1"/><text x="55" y="375.0" font-size="11.5" fill="#71717a" text-anchor="end" font-family="-apple-system, BlinkMacSystemFont, sans-serif">90k</text><line x1="65" y1="292.0" x2="915" y2="292.0" stroke="#f4f4f5" stroke-width="1"/><text x="55" y="296.0" font-size="11.5" fill="#71717a" text-anchor="end" font-family="-apple-system, BlinkMacSystemFont, sans-serif">180k</text><line x1="65" y1="213.0" x2="915" y2="213.0" stroke="#f4f4f5" stroke-width="1"/><text x="55" y="217.0" font-size="11.5" fill="#71717a" text-anchor="end" font-family="-apple-system, BlinkMacSystemFont, sans-serif">270k</text><line x1="65" y1="134.0" x2="915" y2="134.0" stroke="#f4f4f5" stroke-width="1"/><text x="55" y="138.0" font-size="11.5" fill="#71717a" text-anchor="end" font-family="-apple-system, BlinkMacSystemFont, sans-serif">360k</text><line x1="65" y1="55.0" x2="915" y2="55.0" stroke="#f4f4f5" stroke-width="1"/><text x="55" y="59.0" font-size="11.5" fill="#71717a" text-anchor="end" font-family="-apple-system, BlinkMacSystemFont, sans-serif">450k</text>
  <line x1="84.1" y1="55" x2="84.1" y2="450" stroke="#f4f4f5" stroke-width="1"/><text x="84.1" y="466" font-size="11" fill="#71717a" text-anchor="middle" font-family="-apple-system, BlinkMacSystemFont, sans-serif">W1</text><line x1="106.4" y1="55" x2="106.4" y2="450" stroke="#f4f4f5" stroke-width="1"/><text x="106.4" y="466" font-size="11" fill="#71717a" text-anchor="middle" font-family="-apple-system, BlinkMacSystemFont, sans-serif">W2</text><line x1="128.7" y1="55" x2="128.7" y2="450" stroke="#f4f4f5" stroke-width="1"/><line x1="151.0" y1="55" x2="151.0" y2="450" stroke="#f4f4f5" stroke-width="1"/><text x="151.0" y="466" font-size="11" fill="#71717a" text-anchor="middle" font-family="-apple-system, BlinkMacSystemFont, sans-serif">W4</text><line x1="173.2" y1="55" x2="173.2" y2="450" stroke="#f4f4f5" stroke-width="1"/><line x1="195.5" y1="55" x2="195.5" y2="450" stroke="#f4f4f5" stroke-width="1"/><text x="195.5" y="466" font-size="11" fill="#71717a" text-anchor="middle" font-family="-apple-system, BlinkMacSystemFont, sans-serif">W6</text><line x1="217.8" y1="55" x2="217.8" y2="450" stroke="#f4f4f5" stroke-width="1"/><line x1="240.1" y1="55" x2="240.1" y2="450" stroke="#f4f4f5" stroke-width="1"/><text x="240.1" y="466" font-size="11" fill="#71717a" text-anchor="middle" font-family="-apple-system, BlinkMacSystemFont, sans-serif">W8</text><line x1="262.4" y1="55" x2="262.4" y2="450" stroke="#f4f4f5" stroke-width="1"/><line x1="284.7" y1="55" x2="284.7" y2="450" stroke="#f4f4f5" stroke-width="1"/><text x="284.7" y="466" font-size="11" fill="#71717a" text-anchor="middle" font-family="-apple-system, BlinkMacSystemFont, sans-serif">W10</text><line x1="306.9" y1="55" x2="306.9" y2="450" stroke="#f4f4f5" stroke-width="1"/><line x1="329.2" y1="55" x2="329.2" y2="450" stroke="#f4f4f5" stroke-width="1"/><text x="329.2" y="466" font-size="11" fill="#71717a" text-anchor="middle" font-family="-apple-system, BlinkMacSystemFont, sans-serif">W12</text><line x1="351.5" y1="55" x2="351.5" y2="450" stroke="#f4f4f5" stroke-width="1"/><line x1="373.8" y1="55" x2="373.8" y2="450" stroke="#f4f4f5" stroke-width="1"/><text x="373.8" y="466" font-size="11" fill="#71717a" text-anchor="middle" font-family="-apple-system, BlinkMacSystemFont, sans-serif">W14</text><line x1="396.1" y1="55" x2="396.1" y2="450" stroke="#f4f4f5" stroke-width="1"/><line x1="418.4" y1="55" x2="418.4" y2="450" stroke="#f4f4f5" stroke-width="1"/><text x="418.4" y="466" font-size="11" fill="#71717a" text-anchor="middle" font-family="-apple-system, BlinkMacSystemFont, sans-serif">W16</text><line x1="440.7" y1="55" x2="440.7" y2="450" stroke="#f4f4f5" stroke-width="1"/><line x1="462.9" y1="55" x2="462.9" y2="450" stroke="#f4f4f5" stroke-width="1"/><text x="462.9" y="466" font-size="11" fill="#71717a" text-anchor="middle" font-family="-apple-system, BlinkMacSystemFont, sans-serif">W18</text><line x1="485.2" y1="55" x2="485.2" y2="450" stroke="#f4f4f5" stroke-width="1"/><line x1="507.5" y1="55" x2="507.5" y2="450" stroke="#f4f4f5" stroke-width="1"/><text x="507.5" y="466" font-size="11" fill="#71717a" text-anchor="middle" font-family="-apple-system, BlinkMacSystemFont, sans-serif">W20</text><line x1="529.8" y1="55" x2="529.8" y2="450" stroke="#f4f4f5" stroke-width="1"/><line x1="552.1" y1="55" x2="552.1" y2="450" stroke="#f4f4f5" stroke-width="1"/><line x1="574.4" y1="55" x2="574.4" y2="450" stroke="#f4f4f5" stroke-width="1"/><line x1="596.6" y1="55" x2="596.6" y2="450" stroke="#f4f4f5" stroke-width="1"/><text x="596.6" y="466" font-size="11" fill="#71717a" text-anchor="middle" font-family="-apple-system, BlinkMacSystemFont, sans-serif">W24</text><line x1="618.9" y1="55" x2="618.9" y2="450" stroke="#f4f4f5" stroke-width="1"/><line x1="641.2" y1="55" x2="641.2" y2="450" stroke="#f4f4f5" stroke-width="1"/><line x1="663.5" y1="55" x2="663.5" y2="450" stroke="#f4f4f5" stroke-width="1"/><line x1="685.8" y1="55" x2="685.8" y2="450" stroke="#f4f4f5" stroke-width="1"/><text x="685.8" y="466" font-size="11" fill="#71717a" text-anchor="middle" font-family="-apple-system, BlinkMacSystemFont, sans-serif">W28</text><line x1="708.1" y1="55" x2="708.1" y2="450" stroke="#f4f4f5" stroke-width="1"/><line x1="730.4" y1="55" x2="730.4" y2="450" stroke="#f4f4f5" stroke-width="1"/><line x1="752.6" y1="55" x2="752.6" y2="450" stroke="#f4f4f5" stroke-width="1"/><line x1="774.9" y1="55" x2="774.9" y2="450" stroke="#f4f4f5" stroke-width="1"/><text x="774.9" y="466" font-size="11" fill="#71717a" text-anchor="middle" font-family="-apple-system, BlinkMacSystemFont, sans-serif">W32</text><line x1="797.2" y1="55" x2="797.2" y2="450" stroke="#f4f4f5" stroke-width="1"/><line x1="819.5" y1="55" x2="819.5" y2="450" stroke="#f4f4f5" stroke-width="1"/><line x1="841.8" y1="55" x2="841.8" y2="450" stroke="#f4f4f5" stroke-width="1"/><line x1="864.1" y1="55" x2="864.1" y2="450" stroke="#f4f4f5" stroke-width="1"/><text x="864.1" y="466" font-size="11" fill="#71717a" text-anchor="middle" font-family="-apple-system, BlinkMacSystemFont, sans-serif">W36</text><line x1="886.3" y1="55" x2="886.3" y2="450" stroke="#f4f4f5" stroke-width="1"/><line x1="908.6" y1="55" x2="908.6" y2="450" stroke="#f4f4f5" stroke-width="1"/><text x="908.6" y="466" font-size="11" fill="#71717a" text-anchor="middle" font-family="-apple-system, BlinkMacSystemFont, sans-serif">W38</text><text x="65.0" y="466" font-size="11" fill="#71717a" text-anchor="middle" font-family="-apple-system, BlinkMacSystemFont, sans-serif">Day 1</text>

  <!-- Trajectory Lines -->
  <path d="M 65.0,450.0 L 68.2,450.0 L 71.4,449.9 L 74.6,449.9 L 77.7,449.7 L 80.9,449.4 L 84.1,449.2 L 87.3,449.0 L 90.5,448.7 L 93.7,448.5 L 96.8,448.3 L 100.0,448.0 L 103.2,447.8 L 106.4,447.6 L 109.6,447.3 L 112.8,447.1 L 115.9,446.8 L 119.1,446.6 L 122.3,446.4 L 125.5,446.1 L 128.7,445.9 L 131.9,445.7 L 135.0,445.4 L 138.2,445.2 L 141.4,444.9 L 144.6,444.7 L 147.8,444.5 L 151.0,444.2 L 154.1,444.0 L 157.3,443.8 L 160.5,443.5 L 163.7,443.3 L 166.9,443.0 L 170.1,442.8 L 173.2,442.6 L 176.4,442.3 L 179.6,442.1 L 182.8,441.9 L 186.0,441.6 L 189.2,441.4 L 192.3,441.2 L 195.5,440.9 L 198.7,440.7 L 201.9,440.4 L 205.1,440.2 L 208.3,440.0 L 211.4,439.7 L 214.6,439.5 L 217.8,439.3 L 221.0,439.0 L 224.2,438.8 L 227.4,438.5 L 230.5,438.3 L 233.7,438.1 L 236.9,437.8 L 240.1,430.5 L 243.3,423.5 L 246.5,416.5 L 249.6,409.4 L 252.8,402.4 L 256.0,395.4 L 259.2,388.4 L 262.4,381.4 L 265.6,374.3 L 268.7,367.3 L 271.9,360.3 L 275.1,353.3 L 278.3,346.2 L 281.5,339.2 L 284.7,332.2 L 287.8,325.2 L 291.0,318.2 L 294.2,311.1 L 297.4,304.1 L 300.6,300.8 L 303.8,297.3 L 306.9,293.8 L 310.1,290.2 L 313.3,286.7 L 316.5,283.2 L 319.7,279.7 L 322.9,276.2 L 326.0,272.7 L 329.2,269.2 L 332.4,265.7 L 335.6,262.2 L 338.8,258.6 L 342.0,255.1 L 345.1,251.6 L 348.3,248.1 L 351.5,244.6 L 354.7,241.1 L 357.9,237.6 L 361.1,234.1 L 364.3,230.6 L 367.4,227.0 L 370.6,223.5 L 373.8,220.0 L 377.0,216.5 L 380.2,213.0 L 383.4,211.5 L 386.5,210.9 L 389.7,210.3 L 392.9,209.7 L 396.1,209.1 L 399.3,208.5 L 402.5,207.9 L 405.6,207.2 L 408.8,206.6 L 412.0,206.0 L 415.2,205.4 L 418.4,204.8 L 421.6,204.2 L 424.7,203.6 L 427.9,203.0 L 431.1,202.4 L 434.3,201.7 L 437.5,201.1 L 440.7,200.5 L 443.8,199.9 L 447.0,199.3 L 450.2,198.7 L 453.4,198.1 L 456.6,197.5 L 459.8,196.9 L 462.9,196.3 L 466.1,195.6 L 469.3,195.0 L 472.5,194.4 L 475.7,193.8 L 478.9,193.2 L 482.0,192.6 L 485.2,192.0 L 488.4,191.4 L 491.6,190.8 L 494.8,190.2 L 498.0,189.5 L 501.1,188.9 L 504.3,188.3 L 507.5,187.7 L 510.7,187.1 L 513.9,186.5 L 517.1,185.9 L 520.2,185.3 L 523.4,184.7 L 526.6,184.0 L 529.8,183.4 L 533.0,182.8 L 536.2,182.2 L 539.3,181.6 L 542.5,181.0 L 545.7,180.4 L 548.9,179.8 L 552.1,179.2 L 555.3,178.6 L 558.4,177.9 L 561.6,177.3 L 564.8,176.7 L 568.0,176.1 L 571.2,175.5 L 574.4,174.9 L 577.5,174.3 L 580.7,173.7 L 583.9,173.1 L 587.1,172.5 L 590.3,171.8 L 593.5,171.2 L 596.6,170.6 L 599.8,170.0 L 603.0,169.4 L 606.2,168.8 L 609.4,168.2 L 612.6,167.6 L 615.7,167.0 L 618.9,166.3 L 622.1,165.7 L 625.3,165.1 L 628.5,164.5 L 631.7,163.9 L 634.9,163.3 L 638.0,162.7 L 641.2,162.1 L 644.4,161.5 L 647.6,160.9 L 650.8,160.2 L 654.0,159.6 L 657.1,159.0 L 660.3,158.4 L 663.5,157.8 L 666.7,157.2 L 669.9,156.6 L 673.1,156.0 L 676.2,155.4 L 679.4,154.8 L 682.6,154.1 L 685.8,153.5 L 689.0,152.9 L 692.2,152.3 L 695.3,151.7 L 698.5,151.1 L 701.7,150.5 L 704.9,149.9 L 708.1,149.3 L 711.3,148.6 L 714.4,148.0 L 717.6,147.4 L 720.8,146.8 L 724.0,146.2 L 727.2,145.6 L 730.4,145.0 L 733.5,144.4 L 736.7,143.8 L 739.9,143.2 L 743.1,142.5 L 746.3,141.9 L 749.5,141.3 L 752.6,140.7 L 755.8,140.1 L 759.0,139.5 L 762.2,138.9 L 765.4,138.3 L 768.6,137.7 L 771.7,137.1 L 774.9,136.4 L 778.1,135.8 L 781.3,135.2 L 784.5,134.6 L 787.7,134.0 L 790.8,133.4 L 794.0,132.8 L 797.2,132.2 L 800.4,131.6 L 803.6,130.9 L 806.8,130.3 L 809.9,129.7 L 813.1,129.1 L 816.3,128.5 L 819.5,127.9 L 822.7,127.3 L 825.9,126.7 L 829.0,126.1 L 832.2,125.5 L 835.4,124.8 L 838.6,124.2 L 841.8,123.6 L 845.0,123.0 L 848.1,122.4 L 851.3,121.8 L 854.5,121.2 L 857.7,120.6 L 860.9,120.0 L 864.1,119.4 L 867.2,118.7 L 870.4,118.1 L 873.6,117.5 L 876.8,116.9 L 880.0,116.3 L 883.2,115.7 L 886.3,115.1 L 889.5,114.5 L 892.7,113.9 L 895.9,113.3 L 899.1,112.6 L 902.3,112.0 L 905.4,111.4 L 908.6,110.8 L 911.8,110.7 L 915.0,110.6" fill="none" stroke="#e11d48" stroke-width="3" stroke-linecap="round" stroke-linejoin="round"/>
  <path d="M 65.0,428.8 L 68.2,375.1 L 71.4,351.3 L 74.6,335.0 L 77.7,318.6 L 80.9,311.9" fill="none" stroke="#0284c7" stroke-width="3.5" stroke-linecap="round" stroke-linejoin="round"/>

  <!-- Live Mascot Emojis on Tips -->
  <text x="86.9" y="317.9" font-size="20">🐋</text>
  <text x="895.0" y="102.6" font-size="20">🦞</text>

  <!-- Whale reference line (today's level) -->
  <line x1="65" y1="311.9" x2="915" y2="311.9" stroke="#a1a1aa" stroke-width="1.5" stroke-dasharray="4 4"/>
  <text x="915" y="305.9" font-size="11" fill="#71717a" text-anchor="end" font-family="-apple-system, BlinkMacSystemFont, sans-serif">🐋 today · 157,279★</text>

  <!-- Projection fan: current / average / slowing pace -->
  <path d="M 80.9,311.9 L 84.1,300.4 L 87.3,288.9 L 90.5,277.3 L 93.7,265.8 L 96.8,254.2 L 100.0,242.7 L 103.2,231.1 L 106.4,219.6 L 109.6,208.0 L 112.8,196.5 L 115.9,184.9 L 119.1,173.4 L 122.3,161.9 L 125.5,150.3 L 128.7,138.8 L 131.9,127.2 L 135.0,115.7 L 138.2,104.1" fill="none" stroke="#0ea5e9" stroke-width="2" stroke-dasharray="2 3" stroke-linecap="round"/>
  <circle cx="138.2" cy="110.6" r="4" fill="#0ea5e9"/>
  <text x="138.2" y="102.6" font-size="11" font-weight="700" fill="#0ea5e9" text-anchor="middle" paint-order="stroke" stroke="#ffffff" stroke-width="3" font-family="-apple-system, BlinkMacSystemFont, sans-serif">current pace ≈ Sep 5, 2026</text>

  <path d="M 80.9,310.4 L 84.1,301.3 L 87.3,293.5 L 90.5,286.5 L 93.7,280.3 L 96.8,274.7 L 100.0,269.6 L 103.2,264.9 L 106.4,260.5 L 109.6,256.5 L 112.8,252.7 L 115.9,249.1 L 119.1,245.7 L 122.3,242.5 L 125.5,239.5 L 128.7,236.6 L 131.9,233.9 L 135.0,231.3 L 138.2,228.8 L 141.4,226.4 L 144.6,224.1 L 147.8,221.9 L 151.0,219.7 L 154.1,217.6 L 157.3,215.7 L 160.5,213.7 L 163.7,211.9 L 166.9,210.0 L 170.1,208.3 L 173.2,206.6 L 176.4,204.9 L 179.6,203.3 L 182.8,201.7 L 186.0,200.2 L 189.2,198.7 L 192.3,197.3 L 195.5,195.8 L 198.7,194.5 L 201.9,193.1 L 205.1,191.8 L 208.3,190.5 L 211.4,189.2 L 214.6,188.0 L 217.8,186.8 L 221.0,185.6 L 224.2,184.4 L 227.4,183.3 L 230.5,182.2 L 233.7,181.1 L 236.9,180.0 L 240.1,178.9 L 243.3,177.9 L 246.5,176.8 L 249.6,175.8 L 252.8,174.9 L 256.0,173.9 L 259.2,172.9 L 262.4,172.0 L 265.6,171.1 L 268.7,170.1 L 271.9,169.2 L 275.1,168.4 L 278.3,167.5 L 281.5,166.6 L 284.7,165.8 L 287.8,164.9 L 291.0,164.1 L 294.2,163.3 L 297.4,162.5 L 300.6,161.7 L 303.8,160.9 L 306.9,160.2 L 310.1,159.4 L 313.3,158.7 L 316.5,157.9 L 319.7,157.2 L 322.9,156.5 L 326.0,155.8 L 329.2,155.0 L 332.4,154.4 L 335.6,153.7 L 338.8,153.0 L 342.0,152.3 L 345.1,151.6 L 348.3,151.0 L 351.5,150.3 L 354.7,149.7 L 357.9,149.1 L 361.1,148.4 L 364.3,147.8 L 367.4,147.2 L 370.6,146.6 L 373.8,146.0 L 377.0,145.4 L 380.2,144.8 L 383.4,144.2 L 386.5,143.6 L 389.7,143.0 L 392.9,142.5 L 396.1,141.9 L 399.3,141.4 L 402.5,140.8 L 405.6,140.3 L 408.8,139.7 L 412.0,139.2 L 415.2,138.6 L 418.4,138.1 L 421.6,137.6 L 424.7,137.1 L 427.9,136.6 L 431.1,136.1 L 434.3,135.5 L 437.5,135.0 L 440.7,134.5 L 443.8,134.1 L 447.0,133.6 L 450.2,133.1 L 453.4,132.6 L 456.6,132.1 L 459.8,131.7 L 462.9,131.2 L 466.1,130.7 L 469.3,130.3 L 472.5,129.8 L 475.7,129.3 L 478.9,128.9 L 482.0,128.4 L 485.2,128.0 L 488.4,127.6 L 491.6,127.1 L 494.8,126.7 L 498.0,126.3 L 501.1,125.8 L 504.3,125.4 L 507.5,125.0 L 510.7,124.6 L 513.9,124.1 L 517.1,123.7 L 520.2,123.3 L 523.4,122.9 L 526.6,122.5 L 529.8,122.1 L 533.0,121.7 L 536.2,121.3 L 539.3,120.9 L 542.5,120.5 L 545.7,120.1 L 548.9,119.8 L 552.1,119.4 L 555.3,119.0 L 558.4,118.6 L 561.6,118.2 L 564.8,117.9 L 568.0,117.5 L 571.2,117.1 L 574.4,116.8 L 577.5,116.4 L 580.7,116.0 L 583.9,115.7 L 587.1,115.3 L 590.3,115.0 L 593.5,114.6 L 596.6,114.3 L 599.8,113.9 L 603.0,113.6 L 606.2,113.2 L 609.4,112.9 L 612.6,112.5 L 615.7,112.2 L 618.9,111.8 L 622.1,111.5 L 625.3,111.2 L 628.5,110.8 L 631.7,110.5" fill="none" stroke="#0284c7" stroke-width="2" stroke-dasharray="7 5" stroke-linecap="round"/>
  <circle cx="631.7" cy="110.6" r="4" fill="#0284c7"/>
  <text x="631.7" y="102.6" font-size="11" font-weight="700" fill="#0284c7" text-anchor="middle" paint-order="stroke" stroke="#ffffff" stroke-width="3" font-family="-apple-system, BlinkMacSystemFont, sans-serif">average pace ≈ Feb 8, 2027</text>

  <path d="M 80.9,308.5 L 84.1,298.3 L 87.3,290.1 L 90.5,283.6 L 93.7,278.3 L 96.8,274.1 L 100.0,270.7 L 103.2,267.9 L 106.4,265.8 L 109.6,264.0 L 112.8,262.6 L 115.9,261.5 L 119.1,260.6 L 122.3,259.8 L 125.5,259.3 L 128.7,258.8 L 131.9,258.4 L 135.0,258.1 L 138.2,257.9 L 141.4,257.7 L 144.6,257.5 L 147.8,257.4 L 151.0,257.3 L 154.1,257.2 L 157.3,257.2 L 160.5,257.1 L 163.7,257.1 L 166.9,257.0 L 170.1,257.0 L 173.2,257.0 L 176.4,257.0 L 179.6,256.9 L 182.8,256.9 L 186.0,256.9 L 189.2,256.9 L 192.3,256.9 L 195.5,256.9 L 198.7,256.9 L 201.9,256.9 L 205.1,256.9 L 208.3,256.9 L 211.4,256.9 L 214.6,256.9 L 217.8,256.9 L 221.0,256.9 L 224.2,256.9 L 227.4,256.9 L 230.5,256.9 L 233.7,256.9 L 236.9,256.9 L 240.1,256.9 L 243.3,256.9 L 246.5,256.9 L 249.6,256.9 L 252.8,256.9 L 256.0,256.9 L 259.2,256.9 L 262.4,256.9 L 265.6,256.9 L 268.7,256.9 L 271.9,256.9 L 275.1,256.9 L 278.3,256.9 L 281.5,256.9 L 284.7,256.9 L 287.8,256.9 L 291.0,256.9 L 294.2,256.9 L 297.4,256.9 L 300.6,256.9 L 303.8,256.9 L 306.9,256.9 L 310.1,256.9 L 313.3,256.9 L 316.5,256.9 L 319.7,256.9 L 322.9,256.9 L 326.0,256.9 L 329.2,256.9 L 332.4,256.9 L 335.6,256.9 L 338.8,256.9 L 342.0,256.9 L 345.1,256.9 L 348.3,256.9 L 351.5,256.9 L 354.7,256.9 L 357.9,256.9 L 361.1,256.9 L 364.3,256.9 L 367.4,256.9 L 370.6,256.9 L 373.8,256.9 L 377.0,256.9 L 380.2,256.9 L 383.4,256.9 L 386.5,256.9 L 389.7,256.9 L 392.9,256.9 L 396.1,256.9 L 399.3,256.9 L 402.5,256.9 L 405.6,256.9 L 408.8,256.9 L 412.0,256.9 L 415.2,256.9 L 418.4,256.9 L 421.6,256.9 L 424.7,256.9 L 427.9,256.9 L 431.1,256.9 L 434.3,256.9 L 437.5,256.9 L 440.7,256.9 L 443.8,256.9 L 447.0,256.9 L 450.2,256.9 L 453.4,256.9 L 456.6,256.9 L 459.8,256.9 L 462.9,256.9 L 466.1,256.9 L 469.3,256.9 L 472.5,256.9 L 475.7,256.9 L 478.9,256.9 L 482.0,256.9 L 485.2,256.9 L 488.4,256.9 L 491.6,256.9 L 494.8,256.9 L 498.0,256.9 L 501.1,256.9 L 504.3,256.9 L 507.5,256.9 L 510.7,256.9 L 513.9,256.9 L 517.1,256.9 L 520.2,256.9 L 523.4,256.9 L 526.6,256.9 L 529.8,256.9 L 533.0,256.9 L 536.2,256.9 L 539.3,256.9 L 542.5,256.9 L 545.7,256.9 L 548.9,256.9 L 552.1,256.9 L 555.3,256.9 L 558.4,256.9 L 561.6,256.9 L 564.8,256.9 L 568.0,256.9 L 571.2,256.9 L 574.4,256.9 L 577.5,256.9 L 580.7,256.9 L 583.9,256.9 L 587.1,256.9 L 590.3,256.9 L 593.5,256.9 L 596.6,256.9 L 599.8,256.9 L 603.0,256.9 L 606.2,256.9 L 609.4,256.9 L 612.6,256.9 L 615.7,256.9 L 618.9,256.9 L 622.1,256.9 L 625.3,256.9 L 628.5,256.9 L 631.7,256.9 L 634.9,256.9 L 638.0,256.9 L 641.2,256.9 L 644.4,256.9 L 647.6,256.9 L 650.8,256.9 L 654.0,256.9 L 657.1,256.9 L 660.3,256.9 L 663.5,256.9 L 666.7,256.9 L 669.9,256.9 L 673.1,256.9 L 676.2,256.9 L 679.4,256.9 L 682.6,256.9 L 685.8,256.9 L 689.0,256.9 L 692.2,256.9 L 695.3,256.9 L 698.5,256.9 L 701.7,256.9 L 704.9,256.9 L 708.1,256.9 L 711.3,256.9 L 714.4,256.9 L 717.6,256.9 L 720.8,256.9 L 724.0,256.9 L 727.2,256.9 L 730.4,256.9 L 733.5,256.9 L 736.7,256.9 L 739.9,256.9 L 743.1,256.9 L 746.3,256.9 L 749.5,256.9 L 752.6,256.9 L 755.8,256.9 L 759.0,256.9 L 762.2,256.9 L 765.4,256.9 L 768.6,256.9 L 771.7,256.9 L 774.9,256.9 L 778.1,256.9 L 781.3,256.9 L 784.5,256.9 L 787.7,256.9 L 790.8,256.9 L 794.0,256.9 L 797.2,256.9 L 800.4,256.9 L 803.6,256.9 L 806.8,256.9 L 809.9,256.9 L 813.1,256.9 L 816.3,256.9 L 819.5,256.9 L 822.7,256.9 L 825.9,256.9 L 829.0,256.9 L 832.2,256.9 L 835.4,256.9 L 838.6,256.9 L 841.8,256.9 L 845.0,256.9 L 848.1,256.9 L 851.3,256.9 L 854.5,256.9 L 857.7,256.9 L 860.9,256.9 L 864.1,256.9 L 867.2,256.9 L 870.4,256.9 L 873.6,256.9 L 876.8,256.9 L 880.0,256.9 L 883.2,256.9 L 886.3,256.9 L 889.5,256.9 L 892.7,256.9 L 895.9,256.9 L 899.1,256.9 L 902.3,256.9 L 905.4,256.9 L 908.6,256.9 L 911.8,256.9 L 915.0,256.9" fill="none" stroke="#a1a1aa" stroke-width="2" stroke-dasharray="4 4" stroke-linecap="round"/>
  <text x="915" y="250.9" font-size="11" font-weight="700" fill="#a1a1aa" text-anchor="end" paint-order="stroke" stroke="#ffffff" stroke-width="3" font-family="-apple-system, BlinkMacSystemFont, sans-serif">slowing pace: plateaus ~220k★ — no catch-up</text>

  <!-- X-Axis Label -->
  <text x="480.0" y="492" font-size="11.5" font-weight="700" fill="#71717a" text-anchor="middle" font-family="-apple-system, BlinkMacSystemFont, sans-serif">Weeks since Day 1 inception (each vertical line = 1 week)</text>
</svg>